<svg width="66" height="63" viewBox="0 0 66 63" fill="none" xmlns="http://www.w3.org/2000/svg">
<g clip-path="url(#clip0_1_825)">
<g clip-path="url(#clip1_1_825)">
<g clip-path="url(#clip2_1_825)">
<path opacity="0.08" d="M0.5 32.7647V33.2647H1H11.5882H12.0882V32.7647V25.7059V25.2059H11.5882H1H0.5V25.7059V32.7647ZM12.6403 52.7002L12.9937 53.0663L13.3536 52.7065L20.9418 45.1183L21.3016 44.7584L20.9355 44.405L15.8179 39.4638L15.4644 39.1226L15.117 39.47L7.70527 46.8817L7.35786 47.2291L7.69912 47.5826L12.6403 52.7002ZM15.117 19.0006L15.4644 19.348L15.8179 19.0068L20.9355 14.0656L21.3016 13.7121L20.9418 13.3523L13.3536 5.76409L12.9937 5.40428L12.6403 5.77035L7.69912 10.888L7.35786 11.2414L7.70527 11.5888L15.117 19.0006ZM57.117 61.3536L57.4706 61.7071L57.8241 61.3536L64.883 54.2947L65.2365 53.9412L64.883 53.5876L48.8566 37.5613L61.1657 33.2364L62.6151 32.7272L61.1437 32.2858L25.8496 21.6976L24.9601 21.4307L25.227 22.3201L35.8152 57.6143L36.269 59.127L36.7685 57.6287L40.9244 45.1609L57.117 61.3536ZM28.7353 11.5882V12.0882H29.2353H36.2941H36.7941V11.5882V1V0.5H36.2941H29.2353H28.7353V1V11.5882ZM49.7115 19.0068L50.0691 19.3521L50.4165 18.9964L57.8283 11.4082L58.1736 11.0547L57.8241 10.7053L52.883 5.76409L52.5294 5.41054L52.1759 5.76409L44.5876 13.3523L44.2278 13.7121L44.5939 14.0656L49.7115 19.0068Z" stroke="white"/>
</g>
</g>
</g>
<defs>
<clipPath id="clip0_1_825">
<rect width="66" height="63" fill="white"/>
</clipPath>
<clipPath id="clip1_1_825">
<rect width="66" height="63" fill="white"/>
</clipPath>
<clipPath id="clip2_1_825">
<rect width="66" height="63" fill="white"/>
</clipPath>
</defs>
</svg>
