<svg width="56" height="60" viewBox="0 0 56 60" fill="none" xmlns="http://www.w3.org/2000/svg">
<g clip-path="url(#clip0_1_586)">
<g clip-path="url(#clip1_1_586)">
<g clip-path="url(#clip2_1_586)">
<path opacity="0.2" d="M45.2677 38.2055C49.3243 36.0169 51.8333 33.0567 51.8333 30V25.2V24.1045L51.0057 24.8223C46.1486 29.0347 37.7719 31.8077 28 31.8077C18.2276 31.8077 9.85144 29.046 4.99476 24.8227L4.16667 24.1026V25.2V30C4.16667 33.0567 6.67563 36.0168 10.7322 38.2054C15.3309 40.6854 21.4663 42.0385 28 42.0385C34.5337 42.0385 40.669 40.6855 45.2677 38.2055ZM10.7323 7.94838C6.67573 10.137 4.16667 13.0972 4.16667 16.1538C4.16667 19.2105 6.67563 22.1707 10.7322 24.3593C15.3309 26.8394 21.4663 28.1923 28 28.1923C34.5337 28.1923 40.669 26.8394 45.2677 24.3593C49.3243 22.1707 51.8333 19.2105 51.8333 16.1538C51.8333 13.0972 49.3244 10.137 45.2678 7.94842C40.6691 5.46838 34.5337 4.11538 28 4.11538C21.4663 4.11538 15.331 5.46834 10.7323 7.94838ZM45.2677 52.0516C49.3243 49.863 51.8333 46.9028 51.8333 43.8462V39.0462V37.9507L51.0057 38.6684C46.1486 42.8809 37.7719 45.6538 28 45.6538C18.2276 45.6538 9.85144 42.8922 4.99476 38.6689L4.16667 37.9488V39.0462V43.8462C4.16667 46.9028 6.67563 49.863 10.7322 52.0516C15.3309 54.5317 21.4663 55.8846 28 55.8846C34.5337 55.8846 40.669 54.5317 45.2677 52.0516ZM0.5 16.1538C0.5 11.8746 3.40637 7.97255 8.36221 5.11338C13.3089 2.25951 20.2187 0.5 28 0.5C35.7813 0.5 42.6911 2.25951 47.6378 5.11338C52.5936 7.97255 55.5 11.8746 55.5 16.1538V43.8462C55.5 48.1254 52.5936 52.0275 47.6378 54.8866C42.6911 57.7405 35.7813 59.5 28 59.5C20.2187 59.5 13.3089 57.7405 8.36221 54.8866C3.40637 52.0275 0.5 48.1254 0.5 43.8462V16.1538Z" stroke="white"/>
</g>
</g>
</g>
<defs>
<clipPath id="clip0_1_586">
<rect width="56" height="60" fill="white"/>
</clipPath>
<clipPath id="clip1_1_586">
<rect width="56" height="60" fill="white"/>
</clipPath>
<clipPath id="clip2_1_586">
<rect width="56" height="60" fill="white"/>
</clipPath>
</defs>
</svg>
