<svg width="9" height="17" viewBox="0 0 9 17" fill="none" xmlns="http://www.w3.org/2000/svg">
<mask id="mask0_1_676" style="mask-type:luminance" maskUnits="userSpaceOnUse" x="-6" y="-2" width="21" height="21">
<path d="M14.4473 8.49963C14.4473 2.86635 9.8806 -1.70032 4.24732 -1.70032C-1.38595 -1.70032 -5.95263 2.86635 -5.95263 8.49963C-5.95263 14.1329 -1.38595 18.6996 4.24732 18.6996C9.8806 18.6996 14.4473 14.1329 14.4473 8.49963Z" fill="white"/>
</mask>
<g mask="url(#mask0_1_676)">
<path d="M5.95 9.77493H8.07495L8.92492 6.37497H5.95V4.67498C5.95 3.79948 5.95 2.97499 7.64992 2.97499H8.92492V0.119003C8.64789 0.0824564 7.60147 0 6.49651 0C4.18877 0 2.54999 1.40845 2.54999 3.99498V6.37497H0V9.77493H2.54999V17H5.95V9.77493Z" fill="white"/>
</g>
</svg>
