<svg width="174" height="69" viewBox="0 0 174 69" fill="none" xmlns="http://www.w3.org/2000/svg">
<g clip-path="url(#clip0_1_475)">
<g clip-path="url(#clip1_1_475)">
<path d="M42.7188 45.0386L51.0063 24.8828H54.2569L62.5152 45.0386H58.2689L51.8848 28.4954H53.3491L46.8772 45.0386H42.7188ZM47.1114 41.2827V38.0142H58.181V41.2827H47.1114Z" fill="white" fill-opacity="0.18"/>
<path d="M69.6977 45.3253C68.4482 45.3253 67.3354 45.0672 66.3592 44.5512C65.4026 44.0351 64.651 43.3183 64.1043 42.4008C63.5577 41.4834 63.2843 40.4225 63.2843 39.2183V31.1904H67.1499V39.1323C67.1499 39.7058 67.2475 40.2027 67.4428 40.6232C67.638 41.0246 67.9308 41.3304 68.3213 41.5407C68.7118 41.751 69.1706 41.8561 69.6977 41.8561C70.4981 41.8561 71.1229 41.6172 71.5719 41.1393C72.0209 40.6615 72.2455 39.9925 72.2455 39.1323V31.1904H76.0817V39.2183C76.0817 40.4416 75.8084 41.512 75.2618 42.4295C74.7346 43.347 73.983 44.0638 73.0069 44.5798C72.0502 45.0768 70.9472 45.3253 69.6977 45.3253Z" fill="white" fill-opacity="0.18"/>
<path d="M80.6302 45.0386V25.4276H84.4665V45.0386H80.6302ZM77.3211 34.4876V31.1904H87.7757V34.4876H77.3211Z" fill="white" fill-opacity="0.18"/>
<path d="M95.6519 45.3253C94.2267 45.3253 92.9382 45.0099 91.7863 44.3791C90.654 43.7293 89.7462 42.8596 89.0628 41.7701C88.3991 40.6615 88.0672 39.4286 88.0672 38.0715C88.0672 36.7144 88.3991 35.5007 89.0628 34.4303C89.7266 33.3408 90.6345 32.4806 91.7863 31.8499C92.9382 31.2 94.2169 30.8751 95.6226 30.8751C97.0673 30.8751 98.3558 31.2 99.4882 31.8499C100.64 32.4806 101.548 33.3408 102.212 34.4303C102.875 35.5007 103.207 36.7144 103.207 38.0715C103.207 39.4286 102.875 40.6615 102.212 41.7701C101.548 42.8596 100.64 43.7293 99.4882 44.3791C98.3558 45.0099 97.0771 45.3253 95.6519 45.3253ZM95.6226 41.8274C96.345 41.8274 96.9795 41.6745 97.5261 41.3687C98.0923 41.0437 98.5218 40.6041 98.8146 40.0498C99.127 39.4764 99.2832 38.8265 99.2832 38.1002C99.2832 37.3738 99.127 36.7335 98.8146 36.1792C98.5023 35.6249 98.0728 35.1948 97.5261 34.889C96.9795 34.5641 96.345 34.4016 95.6226 34.4016C94.9198 34.4016 94.295 34.5641 93.7484 34.889C93.2017 35.1948 92.7722 35.6249 92.4599 36.1792C92.1475 36.7335 91.9913 37.3738 91.9913 38.1002C91.9913 38.8265 92.1475 39.4764 92.4599 40.0498C92.7722 40.6041 93.2017 41.0437 93.7484 41.3687C94.295 41.6745 94.9198 41.8274 95.6226 41.8274Z" fill="white" fill-opacity="0.18"/>
<path d="M105.091 45.0386V31.1904H108.928V45.0386H105.091ZM114.316 45.0386V36.8673C114.316 36.0645 114.052 35.4433 113.525 35.0037C113.018 34.545 112.383 34.3156 111.622 34.3156C111.114 34.3156 110.655 34.4207 110.245 34.631C109.835 34.8221 109.513 35.1088 109.279 35.4911C109.045 35.8734 108.928 36.3321 108.928 36.8673L107.434 36.1505C107.434 35.0802 107.668 34.1531 108.137 33.3694C108.625 32.5858 109.279 31.9837 110.099 31.5632C110.919 31.1235 111.846 30.9037 112.881 30.9037C113.857 30.9037 114.746 31.1235 115.546 31.5632C116.346 31.9837 116.981 32.5858 117.45 33.3694C117.918 34.134 118.152 35.061 118.152 36.1505V45.0386H114.316ZM123.541 45.0386V36.8673C123.541 36.0645 123.277 35.4433 122.75 35.0037C122.242 34.545 121.608 34.3156 120.847 34.3156C120.358 34.3156 119.9 34.4207 119.47 34.631C119.06 34.8221 118.738 35.1088 118.504 35.4911C118.269 35.8734 118.152 36.3321 118.152 36.8673L115.956 36.3512C116.034 35.2426 116.337 34.2869 116.864 33.4841C117.391 32.6622 118.084 32.0315 118.943 31.5918C119.802 31.1331 120.759 30.9037 121.813 30.9037C122.867 30.9037 123.814 31.1235 124.654 31.5632C125.493 31.9837 126.157 32.5953 126.645 33.3981C127.133 34.2009 127.377 35.1566 127.377 36.2652V45.0386H123.541Z" fill="white" fill-opacity="0.18"/>
<path d="M135.816 45.3253C134.528 45.3253 133.366 45.0099 132.332 44.3791C131.297 43.7484 130.487 42.8882 129.901 41.7987C129.315 40.7092 129.022 39.4859 129.022 38.1288C129.022 36.7526 129.315 35.5198 129.901 34.4303C130.487 33.3408 131.297 32.4806 132.332 31.8499C133.366 31.2191 134.528 30.9037 135.816 30.9037C136.832 30.9037 137.739 31.1044 138.54 31.5058C139.34 31.9072 139.975 32.4711 140.443 33.1974C140.932 33.9046 141.195 34.7074 141.234 35.6058V40.5946C141.195 41.512 140.932 42.3244 140.443 43.0316C139.975 43.7388 139.34 44.3027 138.54 44.7232C137.739 45.1246 136.832 45.3253 135.816 45.3253ZM136.519 41.8561C137.593 41.8561 138.462 41.512 139.126 40.8239C139.789 40.1167 140.121 39.2088 140.121 38.1002C140.121 37.3738 139.965 36.7335 139.653 36.1792C139.36 35.6058 138.94 35.1662 138.394 34.8603C137.866 34.5354 137.242 34.3729 136.519 34.3729C135.816 34.3729 135.192 34.5354 134.645 34.8603C134.118 35.1662 133.698 35.6058 133.386 36.1792C133.093 36.7335 132.947 37.3738 132.947 38.1002C132.947 38.8456 133.093 39.5051 133.386 40.0785C133.698 40.6328 134.118 41.0724 134.645 41.3973C135.192 41.7032 135.816 41.8561 136.519 41.8561ZM139.916 45.0386V41.3113L140.531 37.9281L139.916 34.6023V31.1904H143.723V45.0386H139.916Z" fill="white" fill-opacity="0.18"/>
<path d="M148.611 45.0386V25.4276H152.447V45.0386H148.611ZM145.301 34.4876V31.1904H155.756V34.4876H145.301Z" fill="white" fill-opacity="0.18"/>
<path d="M163.749 45.3253C162.266 45.3253 160.948 45.0195 159.796 44.4078C158.644 43.777 157.727 42.9169 157.043 41.8274C156.379 40.7379 156.048 39.4955 156.048 38.1002C156.048 36.724 156.37 35.5007 157.014 34.4303C157.678 33.3408 158.576 32.4806 159.708 31.8499C160.84 31.2 162.1 30.8751 163.486 30.8751C164.852 30.8751 166.053 31.1809 167.088 31.7925C168.142 32.3851 168.962 33.207 169.548 34.2583C170.153 35.2904 170.456 36.4659 170.456 37.7848C170.456 38.0333 170.436 38.2913 170.397 38.5589C170.378 38.8074 170.329 39.0941 170.251 39.419L158.361 39.4477V36.6379L168.464 36.6093L166.912 37.7848C166.873 36.9629 166.717 36.2748 166.444 35.7205C166.19 35.1662 165.809 34.7457 165.302 34.4589C164.813 34.1531 164.208 34.0002 163.486 34.0002C162.724 34.0002 162.061 34.1722 161.495 34.5163C160.928 34.8412 160.489 35.3095 160.177 35.9212C159.884 36.5137 159.737 37.2209 159.737 38.0428C159.737 38.8839 159.894 39.6197 160.206 40.2505C160.538 40.8622 161.006 41.34 161.612 41.6841C162.217 42.009 162.92 42.1715 163.72 42.1715C164.443 42.1715 165.097 42.0568 165.682 41.8274C166.268 41.5789 166.776 41.2158 167.205 40.7379L169.46 42.9456C168.777 43.7293 167.937 44.3218 166.941 44.7232C165.965 45.1246 164.901 45.3253 163.749 45.3253Z" fill="white" fill-opacity="0.18"/>
<path fill-rule="evenodd" clip-rule="evenodd" d="M3.58789 49.3458V27.9198H9.71094V20.624H17.3319V27.9198H25.0139V35.8702H32.5781V20.624H32.5802V43.4933H25.0139V49.3458H3.58789ZM25.0139 43.4933H9.71094V27.9198H17.3319V35.8702H25.0139V43.4933Z" fill="white" fill-opacity="0.18"/>
</g>
</g>
<defs>
<clipPath id="clip0_1_475">
<rect width="174" height="69" fill="white"/>
</clipPath>
<clipPath id="clip1_1_475">
<rect width="174" height="69" fill="white"/>
</clipPath>
</defs>
</svg>
