<svg width="36" height="36" viewBox="0 0 36 36" fill="none" xmlns="http://www.w3.org/2000/svg">
<rect width="36" height="36" rx="18" fill="#1E1E1F"/>
<g clip-path="url(#clip0_1_681)">
<g clip-path="url(#clip1_1_681)">
<path d="M18 20.5C19.3807 20.5 20.5 19.3807 20.5 18C20.5 16.6193 19.3807 15.5 18 15.5C16.6193 15.5 15.5 16.6193 15.5 18C15.5 19.3807 16.6193 20.5 18 20.5Z" fill="white"/>
<path d="M21.4375 10.1875H14.5625C13.4022 10.1875 12.2894 10.6484 11.4689 11.4689C10.6484 12.2894 10.1875 13.4022 10.1875 14.5625V21.4375C10.1875 22.5978 10.6484 23.7106 11.4689 24.5311C12.2894 25.3516 13.4022 25.8125 14.5625 25.8125H21.4375C22.5978 25.8125 23.7106 25.3516 24.5311 24.5311C25.3516 23.7106 25.8125 22.5978 25.8125 21.4375V14.5625C25.8125 13.4022 25.3516 12.2894 24.5311 11.4689C23.7106 10.6484 22.5978 10.1875 21.4375 10.1875ZM18 21.75C17.2583 21.75 16.5333 21.5301 15.9166 21.118C15.2999 20.706 14.8193 20.1203 14.5354 19.4351C14.2516 18.7498 14.1774 17.9958 14.3221 17.2684C14.4668 16.541 14.8239 15.8728 15.3484 15.3484C15.8728 14.8239 16.541 14.4668 17.2684 14.3221C17.9958 14.1774 18.7498 14.2516 19.4351 14.5354C20.1203 14.8193 20.706 15.2999 21.118 15.9166C21.5301 16.5333 21.75 17.2583 21.75 18C21.75 18.9946 21.3549 19.9484 20.6517 20.6517C19.9484 21.3549 18.9946 21.75 18 21.75ZM22.0625 14.875C21.8771 14.875 21.6958 14.82 21.5417 14.717C21.3875 14.614 21.2673 14.4676 21.1964 14.2963C21.1254 14.125 21.1068 13.9365 21.143 13.7546C21.1792 13.5728 21.2685 13.4057 21.3996 13.2746C21.5307 13.1435 21.6977 13.0542 21.8796 13.018C22.0615 12.9818 22.25 13.0004 22.4213 13.0714C22.5926 13.1423 22.739 13.2625 22.842 13.4166C22.945 13.5708 23 13.7521 23 13.9375C23 14.1861 22.9012 14.4246 22.7254 14.6004C22.5496 14.7762 22.3111 14.875 22.0625 14.875Z" fill="white"/>
</g>
</g>
<defs>
<clipPath id="clip0_1_681">
<rect width="20" height="20" fill="white" transform="translate(8 8)"/>
</clipPath>
<clipPath id="clip1_1_681">
<rect width="20" height="20" fill="white" transform="translate(8 8)"/>
</clipPath>
</defs>
</svg>
