<svg width="60" height="60" viewBox="0 0 60 60" fill="none" xmlns="http://www.w3.org/2000/svg">
<g clip-path="url(#clip0_1_568)">
<g clip-path="url(#clip1_1_568)">
<g clip-path="url(#clip2_1_568)">
<path d="M60 30C60 13.4315 46.5685 0 30 0C13.4315 0 0 13.4315 0 30C0 46.5685 13.4315 60 30 60C46.5685 60 60 46.5685 60 30Z" fill="#1AB0EF"/>
<path d="M43.0003 26.2493V26.252C43.0022 27.0721 42.8414 27.8844 42.5272 28.642C42.2131 29.3996 41.7519 30.0873 41.1703 30.6655L41.163 30.6728L30.0005 42.0003L18.8376 30.6728L18.832 30.6672C17.6587 29.4954 16.9991 27.9055 16.998 26.2473C16.997 24.5891 17.6548 22.9984 18.8266 21.8252C19.9984 20.6519 21.5883 19.9922 23.2465 19.9912C24.9047 19.9902 26.4954 20.648 27.6686 21.8198L27.6804 21.8315L27.6925 21.8428L29.3175 23.3616L29.9991 23.9986L30.6818 23.3628L32.3181 21.839L32.3302 21.8278L32.3419 21.8161C33.2174 20.945 34.3313 20.3527 35.5431 20.1142C36.7549 19.8756 38.0102 20.0015 39.1506 20.4758C40.2909 20.9501 41.2651 21.7516 41.9503 22.7792C42.6355 23.8067 43.0009 25.0142 43.0003 26.2493Z" stroke="#161616" stroke-width="2"/>
</g>
</g>
</g>
<defs>
<clipPath id="clip0_1_568">
<rect width="60" height="60" fill="white"/>
</clipPath>
<clipPath id="clip1_1_568">
<rect width="60" height="60" fill="white"/>
</clipPath>
<clipPath id="clip2_1_568">
<rect width="60" height="60" fill="white"/>
</clipPath>
</defs>
</svg>
