<svg width="15" height="15" viewBox="0 0 15 15" fill="none" xmlns="http://www.w3.org/2000/svg">
<g clip-path="url(#clip0_1_853)">
<g clip-path="url(#clip1_1_853)">
<mask id="mask0_1_853" style="mask-type:luminance" maskUnits="userSpaceOnUse" x="0" y="0" width="16" height="16">
<path d="M15.0781 0.23407H0.078106V15.2341H15.0781V0.23407Z" fill="white"/>
</mask>
<g mask="url(#mask0_1_853)">
<path d="M4.41831 3.35825C4.41814 3.68977 4.28628 4.00764 4.05175 4.24195C3.81721 4.47625 3.4992 4.60778 3.16768 4.60762C2.83616 4.60745 2.51828 4.4756 2.28398 4.24106C2.04968 4.00652 1.91814 3.68852 1.91831 3.357C1.91847 3.02547 2.05033 2.7076 2.28486 2.4733C2.5194 2.23899 2.83741 2.10745 3.16893 2.10762C3.50045 2.10778 3.81833 2.23964 4.05263 2.47418C4.28693 2.70871 4.41847 3.02672 4.41831 3.35825ZM4.45581 5.53325H1.95581V13.3582H4.45581V5.53325ZM8.40578 5.53325H5.91831V13.3582H8.38078V9.25197C8.38078 6.96447 11.362 6.75197 11.362 9.25197V13.3582H13.8308V8.40197C13.8308 4.54575 9.41828 4.6895 8.38078 6.58322L8.40578 5.53325Z" fill="white" fill-opacity="0.7"/>
</g>
</g>
</g>
<defs>
<clipPath id="clip0_1_853">
<rect width="14.7692" height="14.7692" fill="white" transform="scale(1.01563)"/>
</clipPath>
<clipPath id="clip1_1_853">
<rect width="14.7692" height="14.7692" fill="white" transform="translate(0.078106 0.23407) scale(1.01563)"/>
</clipPath>
</defs>
</svg>
