<svg width="192" height="69" viewBox="0 0 192 69" fill="none" xmlns="http://www.w3.org/2000/svg">
<g clip-path="url(#clip0_1_487)">
<g clip-path="url(#clip1_1_487)">
<path fill-rule="evenodd" clip-rule="evenodd" d="M51.1214 45.792H57.4295C57.4295 43.8591 57.8102 41.9451 58.5499 40.1593C59.2896 38.3735 60.3738 36.7509 61.7406 35.3841C63.1074 34.0174 64.73 32.9332 66.5157 32.1935C68.3015 31.4538 70.2155 31.0731 72.1484 31.0731V24.765C69.3871 24.765 66.6529 25.3088 64.1017 26.3655C61.5506 27.4223 59.2326 28.9711 57.2801 30.9236C56.0652 32.1385 55.0067 33.4948 54.1257 34.9608C53.2447 33.4948 52.1861 32.1385 50.9713 30.9236C49.0187 28.9711 46.7007 27.4223 44.1496 26.3655C41.5985 25.3088 38.8642 24.765 36.1029 24.765V31.0731C38.0358 31.0731 39.9498 31.4538 41.7356 32.1935C43.5214 32.9332 45.144 34.0174 46.5107 35.3841C47.8775 36.7509 48.9617 38.3735 49.7014 40.1593C50.4411 41.9451 50.8218 43.8591 50.8218 45.792H51.1214Z" fill="white" fill-opacity="0.18"/>
<path d="M97.4409 35.2904V24.6349H102.587V43.1915H97.6463V39.8208H97.453C97.0342 40.9081 96.3375 41.782 95.3629 42.4424C94.3964 43.1029 93.2165 43.4331 91.8232 43.4331C90.5829 43.4331 89.4915 43.1512 88.5492 42.5874C87.6069 42.0236 86.8699 41.2222 86.3384 40.1833C85.8149 39.1443 85.5491 37.9 85.541 36.4502V24.6349H90.6876V35.5321C90.6956 36.6274 90.9896 37.4932 91.5695 38.1295C92.1494 38.7658 92.9266 39.0839 93.9011 39.0839C94.5213 39.0839 95.1012 38.943 95.6408 38.6611C96.1804 38.3711 96.6153 37.9443 96.9456 37.3805C97.2838 36.8167 97.4489 36.12 97.4409 35.2904Z" fill="white" fill-opacity="0.18"/>
<path d="M105.343 50.1502V24.6349H110.417V27.7518H110.647C110.872 27.2525 111.199 26.7451 111.625 26.2296C112.06 25.7061 112.624 25.2712 113.317 24.9249C114.017 24.5705 114.887 24.3933 115.926 24.3933C117.279 24.3933 118.528 24.7477 119.671 25.4564C120.815 26.1571 121.729 27.2162 122.414 28.6338C123.098 30.0432 123.441 31.8111 123.441 33.9374C123.441 36.0072 123.106 37.755 122.438 39.1805C121.778 40.5981 120.875 41.6733 119.732 42.4062C118.596 43.1311 117.324 43.4935 115.914 43.4935C114.915 43.4935 114.066 43.3284 113.365 42.9982C112.672 42.668 112.105 42.2532 111.662 41.7538C111.219 41.2464 110.88 40.735 110.647 40.2195H110.49V50.1502H105.343ZM110.381 33.9132C110.381 35.0166 110.534 35.9791 110.84 36.8006C111.146 37.6221 111.589 38.2624 112.169 38.7215C112.749 39.1725 113.454 39.398 114.283 39.398C115.121 39.398 115.83 39.1685 116.41 38.7094C116.989 38.2423 117.428 37.5979 117.726 36.7764C118.032 35.9468 118.185 34.9924 118.185 33.9132C118.185 32.842 118.036 31.8997 117.738 31.0862C117.44 30.2728 117.001 29.6365 116.422 29.1774C115.842 28.7183 115.129 28.4888 114.283 28.4888C113.446 28.4888 112.737 28.7103 112.157 29.1532C111.585 29.5962 111.146 30.2244 110.84 31.0379C110.534 31.8514 110.381 32.8098 110.381 33.9132Z" fill="white" fill-opacity="0.18"/>
<path d="M125.511 50.1502V24.6349H130.585V27.7518H130.815C131.04 27.2525 131.366 26.7451 131.793 26.2296C132.228 25.7061 132.792 25.2712 133.484 24.9249C134.185 24.5705 135.055 24.3933 136.094 24.3933C137.447 24.3933 138.695 24.7477 139.839 25.4564C140.983 26.1571 141.897 27.2162 142.581 28.6338C143.266 30.0432 143.608 31.8111 143.608 33.9374C143.608 36.0072 143.274 37.755 142.606 39.1805C141.945 40.5981 141.043 41.6733 139.899 42.4062C138.764 43.1311 137.491 43.4935 136.082 43.4935C135.083 43.4935 134.233 43.3284 133.533 42.9982C132.84 42.668 132.272 42.2532 131.829 41.7538C131.386 41.2464 131.048 40.735 130.815 40.2195H130.657V50.1502H125.511ZM130.549 33.9132C130.549 35.0166 130.702 35.9791 131.008 36.8006C131.314 37.6221 131.757 38.2624 132.337 38.7215C132.917 39.1725 133.621 39.398 134.451 39.398C135.289 39.398 135.997 39.1685 136.577 38.7094C137.157 38.2423 137.596 37.5979 137.894 36.7764C138.2 35.9468 138.353 34.9924 138.353 33.9132C138.353 32.842 138.204 31.8997 137.906 31.0862C137.608 30.2728 137.169 29.6365 136.589 29.1774C136.009 28.7183 135.297 28.4888 134.451 28.4888C133.613 28.4888 132.905 28.7103 132.325 29.1532C131.753 29.5962 131.314 30.2244 131.008 31.0379C130.702 31.8514 130.549 32.8098 130.549 33.9132Z" fill="white" fill-opacity="0.18"/>
<path d="M154.135 43.5539C152.227 43.5539 150.583 43.1673 149.206 42.3941C147.837 41.6129 146.782 40.5095 146.041 39.0839C145.3 37.6503 144.93 35.9549 144.93 33.9978C144.93 32.089 145.3 30.4137 146.041 28.972C146.782 27.5304 147.825 26.4068 149.17 25.6014C150.523 24.796 152.11 24.3933 153.93 24.3933C155.154 24.3933 156.294 24.5906 157.349 24.9853C158.412 25.3719 159.338 25.9558 160.128 26.737C160.925 27.5183 161.545 28.5009 161.988 29.6848C162.431 30.8607 162.653 32.238 162.653 33.8165V35.23H146.983V32.0406H157.808C157.808 31.2997 157.647 30.6432 157.325 30.0714C157.003 29.4996 156.556 29.0526 155.984 28.7304C155.42 28.4002 154.764 28.2351 154.015 28.2351C153.233 28.2351 152.541 28.4163 151.937 28.7787C151.341 29.1331 150.873 29.6123 150.535 30.2164C150.197 30.8124 150.024 31.4768 150.016 32.2098V35.2421C150.016 36.1603 150.185 36.9536 150.523 37.6221C150.869 38.2906 151.357 38.806 151.985 39.1685C152.613 39.5309 153.358 39.7121 154.22 39.7121C154.792 39.7121 155.315 39.6316 155.79 39.4705C156.266 39.3094 156.672 39.0678 157.011 38.7456C157.349 38.4235 157.607 38.0288 157.784 37.5617L162.544 37.8758C162.302 39.0195 161.807 40.0182 161.058 40.8719C160.317 41.7176 159.358 42.378 158.182 42.8532C157.015 43.3203 155.666 43.5539 154.135 43.5539Z" fill="white" fill-opacity="0.18"/>
<path d="M164.65 43.1915V24.6349H169.64V27.8727H169.833C170.171 26.7209 170.739 25.8511 171.536 25.2631C172.334 24.6671 173.252 24.3691 174.291 24.3691C174.549 24.3691 174.827 24.3852 175.125 24.4175C175.423 24.4497 175.684 24.494 175.91 24.5504V29.117C175.668 29.0445 175.334 28.9801 174.907 28.9237C174.48 28.8673 174.09 28.8391 173.735 28.8391C172.978 28.8391 172.302 29.0043 171.706 29.3345C171.118 29.6566 170.65 30.1077 170.304 30.6875C169.966 31.2674 169.797 31.9359 169.797 32.693V43.1915H164.65Z" fill="white" fill-opacity="0.18"/>
</g>
</g>
<defs>
<clipPath id="clip0_1_487">
<rect width="192" height="69" fill="white"/>
</clipPath>
<clipPath id="clip1_1_487">
<rect width="192" height="69" fill="white"/>
</clipPath>
</defs>
</svg>
