<svg width="25" height="24" viewBox="0 0 25 24" fill="none" xmlns="http://www.w3.org/2000/svg">
<path d="M5.11104 12.6665H0.222226V17.5553H5.11104V12.6665Z" fill="white" stroke="white" stroke-width="0.444444"/>
<path opacity="0.4" d="M5.11104 6.44432H0.222226V11.3331H5.11104V6.44432Z" fill="white" stroke="white" stroke-width="0.444444"/>
<path opacity="0.4" d="M17.5561 12.6665H12.6673V17.5553H17.5561V12.6665Z" fill="white" stroke="white" stroke-width="0.444444"/>
<path d="M11.3336 12.6665H6.44481V17.5553H11.3336V12.6665Z" fill="white" stroke="white" stroke-width="0.444444"/>
<path opacity="0.4" d="M11.3336 6.44432H6.44481V11.3331H11.3336V6.44432Z" fill="white" stroke="white" stroke-width="0.444444"/>
<path opacity="0.4" d="M5.11104 0.222226H0.222226V5.11104H5.11104V0.222226Z" fill="white" stroke="white" stroke-width="0.444444"/>
<path opacity="0.4" d="M17.5561 18.889H12.6673V23.7778H17.5561V18.889Z" fill="white" stroke="white" stroke-width="0.444444"/>
<path opacity="0.4" d="M23.7788 18.889H18.89V23.7778H23.7788V18.889Z" fill="white" stroke="white" stroke-width="0.444444"/>
<path d="M5.11104 18.8885H0.222226V23.7773H5.11104V18.8885Z" fill="white" stroke="white" stroke-width="0.444444"/>
<path d="M11.3336 18.8885H6.44481V23.7773H11.3336V18.8885Z" fill="white" stroke="white" stroke-width="0.444444"/>
</svg>
