<svg width="60" height="60" viewBox="0 0 60 60" fill="none" xmlns="http://www.w3.org/2000/svg">
<g clip-path="url(#clip0_1_577)">
<g clip-path="url(#clip1_1_577)">
<g clip-path="url(#clip2_1_577)">
<path d="M60 30C60 13.4315 46.5685 0 30 0C13.4315 0 0 13.4315 0 30C0 46.5685 13.4315 60 30 60C46.5685 60 60 46.5685 60 30Z" fill="#E5C068"/>
<path d="M35.8469 32.174C37.9528 32.7025 40.1625 32.6503 42.2411 32.0229C41.4942 34.4533 40.0009 36.5869 37.973 38.121C36.1911 39.4618 34.0707 40.2796 31.8499 40.4826C29.6287 40.6855 27.3948 40.2654 25.399 39.2693C23.4033 38.2733 21.7247 36.7407 20.5516 34.8436C19.3785 32.9465 18.7573 30.76 18.7579 28.5294V28.5261C18.7499 25.9246 19.5956 23.3922 21.1653 21.3176C22.7016 19.2864 24.8395 17.7913 27.2745 17.0453L27.2759 17.0449L27.2744 17.0498C26.6456 19.1298 26.5929 21.3414 27.1219 23.449C27.6508 25.5565 28.7417 27.4811 30.2782 29.0176C31.8147 30.5541 33.7393 31.645 35.8469 32.174Z" stroke="#161616" stroke-width="2"/>
</g>
</g>
</g>
<defs>
<clipPath id="clip0_1_577">
<rect width="60" height="60" fill="white"/>
</clipPath>
<clipPath id="clip1_1_577">
<rect width="60" height="60" fill="white"/>
</clipPath>
<clipPath id="clip2_1_577">
<rect width="60" height="60" fill="white"/>
</clipPath>
</defs>
</svg>
