<svg width="18" height="15" viewBox="0 0 18 15" fill="none" xmlns="http://www.w3.org/2000/svg">
<path d="M16.8933 2.94539L14.5339 5.29695C14.0652 10.7579 9.4558 15.0001 3.94796 15.0001C2.81515 15.0001 1.87765 14.8204 1.16671 14.4688C0.596396 14.1798 0.362026 13.8751 0.299526 13.7813C0.247816 13.7028 0.214486 13.6136 0.202036 13.5204C0.189596 13.4272 0.198336 13.3323 0.227626 13.243C0.256906 13.1536 0.305986 13.072 0.371186 13.0043C0.436386 12.9365 0.516046 12.8843 0.604206 12.8516C0.619836 12.8438 2.46359 12.1407 3.6589 10.7891C2.91761 10.2613 2.26605 9.6177 1.72921 8.8829C0.658896 7.4298 -0.473914 4.90632 0.205776 1.1407C0.227136 1.02875 0.278346 0.924653 0.353976 0.839393C0.429606 0.754133 0.526856 0.690893 0.635456 0.656323C0.744406 0.620653 0.861066 0.615633 0.972676 0.641813C1.08429 0.667993 1.18656 0.724363 1.26828 0.804763C1.29171 0.836013 3.89328 3.39851 7.07296 4.22664V3.75007C7.07603 3.25454 7.17668 2.76445 7.36915 2.30781C7.56162 1.85117 7.8422 1.43691 8.1947 1.08869C8.5473 0.740473 8.965 0.465113 9.424 0.278323C9.883 0.0915329 10.3743 -0.0030071 10.8698 7.29037e-05C11.5202 0.0093529 12.1571 0.186933 12.7185 0.515533C13.2798 0.844123 13.7465 1.31251 14.073 1.87507H16.448C16.5714 1.87469 16.6921 1.91083 16.795 1.97896C16.8979 2.04708 16.9783 2.14413 17.0261 2.25789C17.0711 2.37333 17.0825 2.49916 17.059 2.62083C17.0355 2.7425 16.9781 2.85502 16.8933 2.94539Z" fill="white"/>
</svg>
