<svg width="60" height="60" viewBox="0 0 60 60" fill="none" xmlns="http://www.w3.org/2000/svg">
<g clip-path="url(#clip0_1_555)">
<g clip-path="url(#clip1_1_555)">
<g clip-path="url(#clip2_1_555)">
<path d="M60 30C60 13.4315 46.5685 0 30 0C13.4315 0 0 13.4315 0 30C0 46.5685 13.4315 60 30 60C46.5685 60 60 46.5685 60 30Z" fill="#B47DFB"/>
<mask id="mask0_1_555" style="mask-type:luminance" maskUnits="userSpaceOnUse" x="13" y="13" width="33" height="33">
<path d="M45.8516 13.7529H13.8516V45.7529H45.8516V13.7529Z" fill="white"/>
</mask>
<g mask="url(#mask0_1_555)">
<path d="M27.0895 16.593C27.317 16.0481 27.7006 15.5827 28.192 15.2553C28.6836 14.9277 29.2612 14.7529 29.852 14.7529C30.4428 14.7529 31.0203 14.9277 31.512 15.2553C32.0033 15.5827 32.3868 16.048 32.6144 16.5927C32.6145 16.5931 32.6147 16.5935 32.6149 16.5939L35.2898 22.9548L42.1157 23.5462C42.1162 23.5462 42.1167 23.5463 42.1172 23.5463C42.7053 23.596 43.2658 23.8181 43.7283 24.1848C44.1912 24.5519 44.5355 25.0474 44.7179 25.6093C44.9003 26.1712 44.9128 26.7744 44.7537 27.3433C44.5947 27.9123 44.2712 28.4216 43.8238 28.8074L43.5424 29.0502H43.5395L38.6361 33.3295L40.1896 40.0679C40.1897 40.0687 40.1899 40.0694 40.1901 40.0702C40.3235 40.6439 40.2851 41.2442 40.0796 41.7963C39.8738 42.349 39.5097 42.8289 39.0327 43.1758C38.5557 43.5228 37.987 43.7214 37.3977 43.7469C36.8085 43.7724 36.2247 43.6236 35.7196 43.3192L35.7171 43.3177L29.8475 39.7576L23.9914 43.3172L23.9882 43.3192C23.483 43.6236 22.8992 43.7724 22.31 43.7469C21.7207 43.7214 21.152 43.5228 20.675 43.1758C20.198 42.8289 19.8339 42.349 19.6281 41.7963C19.4225 41.244 19.3842 40.6434 19.5178 40.0694C19.5179 40.0689 19.518 40.0684 19.5181 40.0679L21.0693 33.3366L15.8864 28.8074C15.8855 28.8067 15.8846 28.8059 15.8837 28.8051C15.4377 28.4196 15.1152 27.9111 14.9565 27.3433C14.7974 26.7744 14.8099 26.1712 14.9923 25.6093C15.1747 25.0474 15.519 24.5519 15.9819 24.1848C16.4445 23.8181 17.005 23.596 17.5931 23.5463C17.5936 23.5463 17.594 23.5462 17.5945 23.5462L24.4222 22.9548L27.0895 16.593ZM27.0895 16.593C27.0893 16.5933 27.0896 16.5927 27.0895 16.593Z" stroke="#161616" stroke-width="2"/>
</g>
</g>
</g>
</g>
<defs>
<clipPath id="clip0_1_555">
<rect width="60" height="60" fill="white"/>
</clipPath>
<clipPath id="clip1_1_555">
<rect width="60" height="60" fill="white"/>
</clipPath>
<clipPath id="clip2_1_555">
<rect width="60" height="60" fill="white"/>
</clipPath>
</defs>
</svg>
