<svg width="14" height="8" viewBox="0 0 14 8" fill="none" xmlns="http://www.w3.org/2000/svg">
<path d="M0.186631 0.186621C0.245723 0.127458 0.315902 0.0805228 0.393157 0.048503C0.470401 0.016473 0.553205 0 0.636823 0C0.720451 0 0.803255 0.016473 0.880499 0.048503C0.957744 0.0805228 1.02792 0.127458 1.08702 0.186621L7.00006 6.10044L12.9131 0.186621C13.0325 0.0672162 13.1945 0.000142245 13.3634 0.000142245C13.5322 0.000142245 13.6941 0.0672162 13.8135 0.186621C13.9329 0.306026 14 0.467968 14 0.636823C14 0.805678 13.9329 0.96762 13.8135 1.08702L7.45023 7.45027C7.39117 7.50942 7.32103 7.55635 7.24375 7.58842C7.16648 7.62039 7.0837 7.63689 7.00006 7.63689C6.91645 7.63689 6.83364 7.62039 6.75639 7.58842C6.67914 7.55635 6.60896 7.50942 6.54986 7.45027L0.186631 1.08701C0.127458 1.02792 0.080533 0.957744 0.048503 0.880489C0.0164832 0.803245 0 0.720441 0 0.636823C0 0.553194 0.0164832 0.470391 0.048503 0.393146C0.080533 0.315902 0.127458 0.245713 0.186631 0.186621Z" fill="white"/>
</svg>
