<svg width="61" height="60" viewBox="0 0 61 60" fill="none" xmlns="http://www.w3.org/2000/svg">
<g clip-path="url(#clip0_1_548)">
<g clip-path="url(#clip1_1_548)">
<path opacity="0.2" d="M33.1065 19.1632L40.0277 2.03265L43.074 3.26349L35.9689 20.8498L36.7861 21.3907L50.198 7.97867L52.5212 10.302L39.681 23.1422L40.2348 23.9539L56.8748 16.6838L58.1902 19.6947L40.5565 27.399L40.7567 28.3571H60V31.6429H40.757L40.5568 32.6011L58.1902 40.3053L56.8748 43.3162L40.2348 36.0461L39.681 36.8579L52.5212 49.698L50.198 52.0212L36.7861 38.6092L35.9689 39.1501L43.074 56.7366L40.0277 57.9673L33.1065 40.8368L32.1429 41.0241V59.5H28.8571V41.0241L27.8935 40.8368L20.9723 57.9673L17.9259 56.7366L25.0312 39.1501L24.2141 38.6092L10.802 52.0212L8.4787 49.698L21.3188 36.8579L20.7651 36.0461L4.12523 43.3162L2.80974 40.3053L20.4433 32.6011L20.2431 31.6429H1V28.3571H20.2432L20.4433 27.399L2.80974 19.6947L4.12523 16.6838L20.7651 23.9539L21.3189 23.1422L8.47869 10.302L10.802 7.97866L24.2141 21.3907L25.0312 20.8499L17.9259 3.26349L20.9723 2.03264L27.8935 19.1632L28.8571 18.9759V0.5H32.1429V18.9759L33.1065 19.1632Z" stroke="white"/>
</g>
</g>
<defs>
<clipPath id="clip0_1_548">
<rect width="61" height="60" fill="white"/>
</clipPath>
<clipPath id="clip1_1_548">
<rect width="61" height="60" fill="white"/>
</clipPath>
</defs>
</svg>
