<svg width="192" height="69" viewBox="0 0 192 69" fill="none" xmlns="http://www.w3.org/2000/svg">
<g clip-path="url(#clip0_1_496)">
<g clip-path="url(#clip1_1_496)">
<path d="M80.2485 45.4458C78.7008 45.4458 77.2912 45.2063 76.0199 44.7272C74.767 44.2482 73.6891 43.5757 72.7863 42.7097C71.8835 41.8253 71.1833 40.7659 70.6859 39.5314C70.2068 38.2785 69.9673 36.8874 69.9673 35.3581C69.9673 33.8288 70.2068 32.447 70.6859 31.2125C71.1649 29.9596 71.8466 28.9002 72.731 28.0342C73.6154 27.1498 74.6841 26.4681 75.937 25.989C77.1899 25.51 78.5902 25.2704 80.1379 25.2704C81.3171 25.2704 82.4042 25.4178 83.3991 25.7126C84.4125 26.0074 85.3061 26.4496 86.08 27.0392C86.8722 27.6104 87.5355 28.3382 88.0699 29.2226C88.6042 30.107 88.9911 31.1296 89.2306 32.2904H85.085C84.6981 31.2586 84.0716 30.4847 83.2057 29.9688C82.3397 29.4529 81.3263 29.195 80.1655 29.195C79.3733 29.195 78.6547 29.37 78.0098 29.7201C77.3834 30.0701 76.849 30.5308 76.4068 31.1019C75.9831 31.6731 75.6514 32.3272 75.4119 33.0642C75.1908 33.8012 75.0802 34.5658 75.0802 35.3581C75.0802 36.1504 75.1908 36.915 75.4119 37.652C75.6514 38.389 75.9923 39.0523 76.4345 39.6419C76.8767 40.2131 77.411 40.6737 78.0375 41.0238C78.6823 41.3739 79.4009 41.5489 80.1932 41.5489C81.4645 41.5489 82.4871 41.3002 83.2609 40.8027C84.0532 40.2868 84.6612 39.4945 85.085 38.4259H89.2306C88.7147 40.8764 87.7014 42.6636 86.1905 43.7876C84.6981 44.8931 82.7174 45.4458 80.2485 45.4458ZM90.2412 24.5519H94.7737V45.0312H90.2412V24.5519ZM95.686 38.2324C95.686 37.1085 95.8979 36.1043 96.3216 35.2199C96.7454 34.3171 97.3074 33.5617 98.0075 32.9537C98.7077 32.3272 99.5184 31.8574 100.44 31.5441C101.361 31.2125 102.319 31.0467 103.314 31.0467C104.309 31.0467 105.267 31.2125 106.188 31.5441C107.109 31.8574 107.92 32.3272 108.62 32.9537C109.339 33.5617 109.91 34.3171 110.334 35.2199C110.758 36.1043 110.97 37.1085 110.97 38.2324C110.97 39.3563 110.758 40.3697 110.334 41.2725C109.91 42.1569 109.339 42.9124 108.62 43.5388C107.92 44.1653 107.109 44.6443 106.188 44.976C105.267 45.2892 104.309 45.4458 103.314 45.4458C102.319 45.4458 101.361 45.2892 100.44 44.976C99.5184 44.6443 98.7077 44.1653 98.0075 43.5388C97.3074 42.9124 96.7454 42.1569 96.3216 41.2725C95.8979 40.3697 95.686 39.3563 95.686 38.2324ZM103.314 34.0315C102.835 34.0315 102.393 34.1329 101.987 34.3355C101.6 34.5382 101.26 34.833 100.965 35.2199C100.67 35.5884 100.44 36.0306 100.274 36.5465C100.126 37.0624 100.053 37.6244 100.053 38.2324C100.053 38.8589 100.126 39.43 100.274 39.9459C100.44 40.4618 100.67 40.904 100.965 41.2725C101.26 41.641 101.6 41.9358 101.987 42.1569C102.393 42.3596 102.835 42.461 103.314 42.461C104.29 42.461 105.074 42.074 105.663 41.3002C106.271 40.5079 106.575 39.4853 106.575 38.2324C106.575 36.9979 106.271 35.9938 105.663 35.2199C105.074 34.4277 104.29 34.0315 103.314 34.0315ZM117.691 45.4458C116.641 45.4458 115.748 45.2984 115.011 45.0036C114.274 44.7088 113.666 44.3127 113.187 43.8152C112.726 43.2993 112.385 42.7097 112.164 42.0464C111.961 41.3647 111.86 40.6461 111.86 39.8907V31.4612H116.393V37.9837C116.393 38.4627 116.42 38.9602 116.475 39.4761C116.549 39.9736 116.66 40.4342 116.807 40.858C116.954 41.2633 117.157 41.595 117.415 41.8529C117.691 42.1109 118.032 42.2399 118.438 42.2399C118.861 42.2399 119.221 42.0925 119.516 41.7977C119.81 41.5029 120.041 41.1159 120.206 40.6369C120.391 40.1578 120.52 39.6235 120.593 39.0339C120.686 38.4259 120.732 37.8179 120.732 37.2098V31.4612H125.292V45.0312H122.943L122.362 40.9685H122.086C122.086 41.4107 122.012 41.899 121.865 42.4333C121.717 42.9492 121.469 43.4283 121.119 43.8705C120.768 44.3127 120.317 44.6904 119.764 45.0036C119.212 45.2984 118.521 45.4458 117.691 45.4458ZM132.9 45.4458C132.163 45.4458 131.398 45.3261 130.606 45.0865C129.814 44.847 129.086 44.4509 128.422 43.8981C127.778 43.3269 127.243 42.5807 126.819 41.6595C126.414 40.7382 126.211 39.5959 126.211 38.2324C126.211 36.869 126.414 35.7266 126.819 34.8054C127.243 33.8841 127.778 33.1471 128.422 32.5944C129.086 32.0416 129.814 31.6455 130.606 31.406C131.398 31.1664 132.163 31.0467 132.9 31.0467C134.153 31.0467 135.221 31.3599 136.106 31.9863C137.008 32.6128 137.589 33.4235 137.847 34.4184H138.123V24.5519H142.435V45.0312H139.09L138.344 40.9133H138.068C137.957 41.5029 137.745 42.074 137.432 42.6268C137.119 43.1611 136.732 43.6402 136.271 44.0639C135.829 44.4877 135.323 44.8194 134.751 45.0589C134.18 45.3168 133.563 45.4458 132.9 45.4458ZM134.143 33.6999C133.591 33.6999 133.102 33.8196 132.679 34.0592C132.273 34.2987 131.932 34.6303 131.656 35.0541C131.398 35.4595 131.195 35.9385 131.048 36.4913C130.919 37.044 130.855 37.6244 130.855 38.2324C130.855 38.8589 130.919 39.4485 131.048 40.0012C131.195 40.554 131.398 41.0422 131.656 41.466C131.932 41.8714 132.273 42.1938 132.679 42.4333C133.102 42.6728 133.591 42.7926 134.143 42.7926C134.862 42.7926 135.452 42.6544 135.912 42.378C136.391 42.0832 136.769 41.7055 137.045 41.2449C137.34 40.7659 137.543 40.2407 137.653 39.6696C137.782 39.08 137.847 38.4812 137.847 37.8731C137.847 37.3388 137.755 36.8229 137.57 36.3254C137.405 35.8095 137.156 35.3581 136.824 34.9712C136.511 34.5843 136.124 34.2803 135.663 34.0592C135.203 33.8196 134.696 33.6999 134.143 33.6999ZM146.694 50.4758C146.031 50.4758 145.395 50.3469 144.787 50.0889C144.197 49.8494 143.663 49.5085 143.184 49.0663C142.723 48.6426 142.346 48.1451 142.051 47.5739C141.756 47.0027 141.572 46.3855 141.498 45.7222H143.433C143.488 46.017 143.589 46.3026 143.737 46.579C143.884 46.8553 144.078 47.1041 144.317 47.3252C144.557 47.5463 144.842 47.7213 145.174 47.8503C145.524 47.9977 145.92 48.0714 146.362 48.0714C146.786 48.0714 147.192 47.9885 147.578 47.8226C147.965 47.6752 148.315 47.4634 148.629 47.187C148.942 46.9106 149.2 46.5882 149.403 46.2197C149.605 45.8512 149.734 45.455 149.789 45.0312H147.551L142.631 31.4612H147.164L150.342 41.5766H150.867L154.101 31.4612H158.633L153.548 44.9207C153.161 45.9709 152.691 46.8461 152.139 47.5463C151.604 48.2648 151.033 48.836 150.425 49.2598C149.817 49.702 149.191 50.0152 148.546 50.1995C147.901 50.3837 147.284 50.4758 146.694 50.4758Z" fill="white" fill-opacity="0.18"/>
<path d="M55.8862 37.4563C54.4837 38.2654 52.8412 38.556 51.2459 38.2771C49.6507 37.9982 48.2044 37.1676 47.16 35.9306C47.8082 35.1634 48.6161 34.5468 49.5274 34.1239C50.4386 33.7009 51.4312 33.4818 52.436 33.4818C53.4407 33.4818 54.4333 33.7009 55.3445 34.1239C56.2558 34.5468 57.0637 35.1634 57.7119 35.9306C58.627 34.8457 59.1852 33.5053 59.3105 32.0919C59.4359 30.6785 59.1223 29.2609 58.4124 28.032C57.7026 26.8032 56.631 25.8229 55.3436 25.2246C54.0562 24.6264 52.6156 24.4393 51.2179 24.6888C51.5583 25.6335 51.6884 26.6411 51.5991 27.6413C51.5098 28.6415 51.2033 29.6101 50.7009 30.4797C50.1985 31.3492 49.5123 32.0988 48.6902 32.6761C47.8681 33.2533 46.9299 33.6444 45.941 33.822C45.6005 32.8773 45.4702 31.8697 45.5595 30.8695C45.6487 29.8692 45.9552 28.9005 46.4577 28.0309C46.9601 27.1613 47.6463 26.4117 48.4685 25.8345C49.2907 25.2573 50.229 24.8663 51.2179 24.6888C50.7364 23.3526 49.8541 22.1973 48.6914 21.3808C47.5287 20.5642 46.1422 20.126 44.7212 20.126C43.3001 20.126 41.9136 20.5642 40.7509 21.3808C39.5882 22.1973 38.7059 23.3526 38.2244 24.6888C39.2132 24.8664 40.1514 25.2575 40.9735 25.8347C41.7955 26.412 42.4817 27.1616 42.984 28.0312C43.4864 28.9008 43.7928 29.8695 43.882 30.8696C43.9711 31.8698 43.8409 32.8774 43.5003 33.822C42.5117 33.6442 41.5738 33.2529 40.7522 32.6754C39.9305 32.0979 39.2448 31.3483 38.7428 30.4786C38.2409 29.609 37.9349 28.6404 37.8462 27.6404C37.7575 26.6404 37.8881 25.6331 38.2291 24.6888C36.8313 24.439 35.3906 24.6259 34.103 25.2241C32.8154 25.8222 31.7436 26.8025 31.0336 28.0314C30.3237 29.2603 30.01 30.6781 30.1353 32.0916C30.2607 33.5051 30.819 34.8457 31.7341 35.9306C32.3824 35.1634 33.1904 34.5468 34.1018 34.1238C35.0131 33.7009 36.0058 33.4818 37.0106 33.4818C38.0153 33.4818 39.008 33.7009 39.9194 34.1238C40.8307 34.5468 41.6387 35.1634 42.287 35.9306C41.6387 36.6979 40.8307 37.3145 39.9194 37.7374C39.008 38.1604 38.0153 38.3795 37.0106 38.3795C36.0058 38.3795 35.0131 38.1604 34.1018 37.7374C33.1904 37.3145 32.3824 36.6979 31.7341 35.9306C30.8186 37.0156 30.26 38.3562 30.1345 39.7699C30.0089 41.1836 30.3225 42.6016 31.0326 43.8307C31.7426 45.0598 32.8146 46.0403 34.1024 46.6384C35.3902 47.2366 36.8312 47.4234 38.2291 47.1734C37.8881 46.2287 37.7576 45.2211 37.8466 44.2208C37.9357 43.2206 38.2421 42.2518 38.7445 41.3821C39.2468 40.5124 39.9331 39.7628 40.7553 39.1856C41.5776 38.6083 42.516 38.2175 43.505 38.0402C43.8451 38.9849 43.9749 39.9923 43.8855 40.9923C43.7961 41.9923 43.4896 42.9608 42.9874 43.8302C42.4851 44.6997 41.7992 45.4492 40.9774 46.0266C40.1556 46.604 39.2177 46.9954 38.2291 47.1734C38.7106 48.5096 39.5929 49.6649 40.7556 50.4815C41.9183 51.298 43.3047 51.7362 44.7258 51.7362C46.1469 51.7362 47.5334 51.298 48.6961 50.4815C49.8588 49.6649 50.7411 48.5096 51.2226 47.1734C50.2338 46.9956 49.2957 46.6045 48.4737 46.0272C47.6517 45.4499 46.9656 44.7003 46.4632 43.8308C45.9608 42.9613 45.6543 41.9927 45.5649 40.9926C45.4755 39.9925 45.6055 38.9849 45.9457 38.0402C46.9346 38.2178 47.8728 38.6089 48.6949 39.1861C49.5169 39.7634 50.2031 40.513 50.7055 41.3825C51.2079 42.2521 51.5145 43.2208 51.6038 44.2209C51.6931 45.2211 51.563 46.2287 51.2226 47.1734C52.62 47.4219 54.0601 47.234 55.3469 46.6353C56.6336 46.0366 57.7045 45.0561 58.4137 43.8273C59.123 42.5985 59.4361 41.1812 59.3105 39.7682C59.1849 38.3552 58.6267 37.0152 57.7119 35.9306C57.1966 36.5412 56.5788 37.0575 55.8862 37.4563Z" fill="white" fill-opacity="0.18"/>
</g>
</g>
<defs>
<clipPath id="clip0_1_496">
<rect width="192" height="69" fill="white"/>
</clipPath>
<clipPath id="clip1_1_496">
<rect width="192" height="69" fill="white"/>
</clipPath>
</defs>
</svg>
