<svg width="16" height="16" viewBox="0 0 16 16" fill="none" xmlns="http://www.w3.org/2000/svg">
<path d="M14.72 0H1.28C0.940524 0 0.614953 0.134861 0.374907 0.374907C0.134861 0.614953 0 0.940524 0 1.28V14.72C0 15.0595 0.134861 15.3851 0.374907 15.6251C0.614953 15.8651 0.940524 16 1.28 16H14.72C15.0595 16 15.3851 15.8651 15.6251 15.6251C15.8651 15.3851 16 15.0595 16 14.72V1.28C16 0.940524 15.8651 0.614953 15.6251 0.374907C15.3851 0.134861 15.0595 0 14.72 0ZM5.44 11.84C5.44 12.0098 5.37257 12.1725 5.25255 12.2925C5.13252 12.4126 4.96974 12.48 4.8 12.48C4.63026 12.48 4.46748 12.4126 4.34745 12.2925C4.22743 12.1725 4.16 12.0098 4.16 11.84V6.72C4.16 6.55026 4.22743 6.38748 4.34745 6.26745C4.46748 6.14743 4.63026 6.08 4.8 6.08C4.96974 6.08 5.13252 6.14743 5.25255 6.26745C5.37257 6.38748 5.44 6.55026 5.44 6.72V11.84ZM4.8 5.12C4.61013 5.12 4.42452 5.0637 4.26665 4.95821C4.10878 4.85273 3.98574 4.70279 3.91307 4.52738C3.84042 4.35196 3.8214 4.15894 3.85844 3.97271C3.89549 3.7865 3.98692 3.61544 4.12118 3.48118C4.25544 3.34692 4.4265 3.25549 4.61271 3.21844C4.79894 3.1814 4.99196 3.20042 5.16738 3.27307C5.34279 3.34574 5.49273 3.46878 5.59821 3.62665C5.7037 3.78452 5.76 3.97013 5.76 4.16C5.76 4.41461 5.65886 4.65879 5.47882 4.83882C5.29879 5.01886 5.05461 5.12 4.8 5.12ZM12.48 11.84C12.48 12.0098 12.4126 12.1725 12.2925 12.2925C12.1725 12.4126 12.0098 12.48 11.84 12.48C11.6702 12.48 11.5075 12.4126 11.3875 12.2925C11.2674 12.1725 11.2 12.0098 11.2 11.84V8.96C11.2 8.53565 11.0315 8.12872 10.7314 7.82863C10.4313 7.52857 10.0243 7.36 9.6 7.36C9.17565 7.36 8.76872 7.52857 8.46858 7.82863C8.16855 8.12872 8 8.53565 8 8.96V11.84C8 12.0098 7.93257 12.1725 7.81255 12.2925C7.69252 12.4126 7.52974 12.48 7.36 12.48C7.19026 12.48 7.02748 12.4126 6.90745 12.2925C6.78743 12.1725 6.72 12.0098 6.72 11.84V6.72C6.71956 6.5625 6.77721 6.41036 6.88192 6.29271C6.98664 6.17505 7.13106 6.10014 7.28755 6.08231C7.44405 6.06449 7.60162 6.10499 7.73011 6.19607C7.85861 6.28717 7.949 6.42244 7.984 6.576C8.41708 6.28243 8.92191 6.11239 9.44435 6.08411C9.96669 6.05582 10.487 6.17038 10.9492 6.41546C11.4114 6.66056 11.7981 7.02692 12.0678 7.47522C12.3376 7.92353 12.48 8.43684 12.48 8.96V11.84Z" fill="white"/>
</svg>
