<svg width="159" height="69" viewBox="0 0 159 69" fill="none" xmlns="http://www.w3.org/2000/svg">
<g clip-path="url(#clip0_1_501)">
<g clip-path="url(#clip1_1_501)">
<path d="M62.175 45.9924C60.644 45.9924 59.2278 45.7341 57.9264 45.2173C56.6441 44.7006 55.5245 43.9734 54.5676 43.0356C53.6298 42.0787 52.893 40.9495 52.3571 39.6481C51.8404 38.3276 51.582 36.8731 51.582 35.2846C51.582 33.1794 52.0318 31.3421 52.9313 29.7728C53.8308 28.1843 55.0748 26.9499 56.6632 26.0695C58.2708 25.1892 60.0985 24.749 62.1463 24.749C64.2324 24.749 66.0697 25.1892 67.6582 26.0695C69.2466 26.9499 70.4906 28.1843 71.3901 29.7728C72.3087 31.3612 72.7681 33.2081 72.7681 35.3133C72.7681 36.8826 72.5001 38.3276 71.9643 39.6481C71.4475 40.9495 70.7107 42.0787 69.7538 43.0356C68.816 43.9734 67.6964 44.7006 66.395 45.2173C65.1128 45.7341 63.7061 45.9924 62.175 45.9924ZM62.1463 42.4901C63.352 42.4901 64.4142 42.1839 65.3329 41.5715C66.2515 40.9591 66.9692 40.117 67.4859 39.0453C68.0218 37.9544 68.2897 36.6913 68.2897 35.2559C68.2897 33.8397 68.0314 32.6052 67.5146 31.5526C66.9979 30.5 66.2802 29.6867 65.3616 29.1125C64.4429 28.5384 63.3712 28.2513 62.1463 28.2513C60.9406 28.2513 59.8785 28.5384 58.9598 29.1125C58.0412 29.6867 57.3235 30.5 56.8068 31.5526C56.3092 32.5861 56.0604 33.8205 56.0604 35.2559C56.0604 36.7104 56.3187 37.9831 56.8355 39.074C57.3522 40.1457 58.0699 40.9878 58.9885 41.6002C59.9072 42.1935 60.9598 42.4901 62.1463 42.4901Z" fill="white" fill-opacity="0.18"/>
<path d="M74.4862 45.7054V31.0646H78.7062V34.5095H78.7924V45.7054H74.4862ZM78.7924 38.0692L78.4192 34.5956C78.7636 33.3516 79.3282 32.4043 80.1129 31.7536C80.8976 31.1029 81.8736 30.7775 83.041 30.7775C83.4047 30.7775 83.6726 30.8158 83.8448 30.8924V34.9114C83.7492 34.8731 83.6152 34.854 83.4429 34.854C83.2707 34.8348 83.0602 34.8253 82.8114 34.8253C81.4334 34.8253 80.4191 35.0741 79.7684 35.5717C79.1177 36.0501 78.7924 36.8826 78.7924 38.0692Z" fill="white" fill-opacity="0.18"/>
<path d="M93.9911 45.9924C92.594 45.9924 91.4553 45.6671 90.5749 45.0164C89.7137 44.3657 89.2065 43.4758 89.0534 42.3466L89.2831 42.3179V45.7054H85.0631V25.0361H89.3692V34.3085L89.1109 34.2511C89.3214 33.1794 89.8764 32.3373 90.7759 31.7249C91.6945 31.0933 92.8428 30.7775 94.2208 30.7775C95.5413 30.7775 96.68 31.0933 97.6369 31.7249C98.613 32.3373 99.3594 33.2081 99.8761 34.3372C100.412 35.4664 100.68 36.7965 100.68 38.3276C100.68 39.8778 100.402 41.227 99.8474 42.3753C99.2924 43.5236 98.5173 44.4135 97.5221 45.0451C96.5269 45.6767 95.3499 45.9924 93.9911 45.9924ZM92.7854 42.5476C93.7997 42.5476 94.6227 42.1839 95.2542 41.4567C95.8858 40.7294 96.2016 39.696 96.2016 38.3563C96.2016 37.0166 95.8762 35.9927 95.2255 35.2846C94.594 34.5765 93.7614 34.2224 92.728 34.2224C91.7328 34.2224 90.9098 34.586 90.2591 35.3133C89.6276 36.0214 89.3118 37.0453 89.3118 38.385C89.3118 39.7247 89.6276 40.7581 90.2591 41.4854C90.9098 42.1935 91.7519 42.5476 92.7854 42.5476Z" fill="white" fill-opacity="0.18"/>
<path d="M102.116 45.7054V31.0646H106.422V45.7054H102.116ZM101.972 29.1125V24.4619H106.566V29.1125H101.972Z" fill="white" fill-opacity="0.18"/>
<path d="M115.715 46.0211C113.84 46.0211 112.443 45.5714 111.524 44.6719C110.624 43.7533 110.175 42.3657 110.175 40.5093V27.792L114.481 26.1844V40.6529C114.481 41.3036 114.663 41.7916 115.026 42.1169C115.39 42.4423 115.954 42.605 116.72 42.605C117.007 42.605 117.275 42.5763 117.524 42.5188C117.773 42.4614 118.021 42.3944 118.27 42.3179V45.5905C118.021 45.7245 117.667 45.8298 117.208 45.9063C116.768 45.9829 116.27 46.0211 115.715 46.0211ZM107.447 34.3372V31.0646H118.27V34.3372H107.447Z" fill="white" fill-opacity="0.18"/>
<path d="M128.924 45.7054C128.81 45.2843 128.723 44.8346 128.666 44.3561C128.628 43.8777 128.609 43.3227 128.609 42.6911H128.494V35.7726C128.494 35.1793 128.293 34.72 127.891 34.3947C127.508 34.0502 126.934 33.8779 126.168 33.8779C125.441 33.8779 124.857 34.0023 124.417 34.2511C123.996 34.4999 123.719 34.8635 123.585 35.342H119.48C119.671 34.0215 120.35 32.9306 121.518 32.0694C122.685 31.2081 124.283 30.7775 126.312 30.7775C128.417 30.7775 130.025 31.2464 131.135 32.1842C132.245 33.122 132.8 34.4712 132.8 36.2319V42.6911C132.8 43.1695 132.829 43.6576 132.886 44.1552C132.963 44.6336 133.077 45.1504 133.23 45.7054H128.924ZM123.814 45.9924C122.36 45.9924 121.202 45.6288 120.341 44.9016C119.48 44.1552 119.049 43.1695 119.049 41.9447C119.049 40.5859 119.556 39.495 120.571 38.6721C121.604 37.83 123.039 37.2845 124.877 37.0357L129.154 36.4329V38.9304L125.594 39.4759C124.829 39.5907 124.264 39.8012 123.901 40.1074C123.537 40.4136 123.355 40.8347 123.355 41.3706C123.355 41.849 123.527 42.2126 123.872 42.4614C124.216 42.7102 124.676 42.8346 125.25 42.8346C126.149 42.8346 126.915 42.5954 127.546 42.1169C128.178 41.6193 128.494 41.0452 128.494 40.3945L128.896 42.6911C128.475 43.782 127.833 44.6049 126.972 45.1599C126.111 45.7149 125.058 45.9924 123.814 45.9924Z" fill="white" fill-opacity="0.18"/>
<path d="M135.248 45.7054V25.0361H139.554V45.7054H135.248Z" fill="white" fill-opacity="0.18"/>
<path d="M41.154 34.9413C41.154 25.6927 33.6566 18.1953 24.4081 18.1953C15.1595 18.1953 7.66211 25.6927 7.66211 34.9413C7.66211 44.1898 15.1595 51.6872 24.4081 51.6872C33.6566 51.6872 41.154 44.1898 41.154 34.9413Z" fill="white" fill-opacity="0.18"/>
<path d="M28.3875 44.5096C27.4974 44.5096 26.616 44.3342 25.7936 43.9936C24.9713 43.653 24.224 43.1537 23.5946 42.5243C22.9652 41.8949 22.466 41.1477 22.1253 40.3253C21.7847 39.503 21.6094 38.6216 21.6094 37.7314H28.3875V44.5096Z" fill="#161616"/>
<path d="M21.6141 37.7322C20.7239 37.7322 19.8425 37.5569 19.0202 37.2163C18.1978 36.8756 17.4506 36.3764 16.8212 35.747C16.1918 35.1176 15.6925 34.3703 15.3519 33.548C15.0113 32.7256 14.8359 31.8442 14.8359 30.9541H21.6141V37.7322Z" fill="#161616"/>
<path d="M35.1746 37.7332C35.1746 36.8431 34.9993 35.9617 34.6587 35.1393C34.318 34.317 33.8187 33.5698 33.1893 32.9403C32.5599 32.3109 31.8127 31.8117 30.9904 31.471C30.168 31.1304 29.2866 30.9551 28.3965 30.9551V37.7332H35.1746Z" fill="#161616"/>
<path d="M28.3934 30.9539C28.3934 30.0638 28.218 29.1824 27.8774 28.36C27.5368 27.5377 27.0375 26.7905 26.4081 26.161C25.7787 25.5316 25.0315 25.0324 24.2091 24.6917C23.3867 24.3511 22.5054 24.1758 21.6152 24.1758V30.9539H28.3934Z" fill="#161616"/>
</g>
</g>
<defs>
<clipPath id="clip0_1_501">
<rect width="159" height="69" fill="white"/>
</clipPath>
<clipPath id="clip1_1_501">
<rect width="159" height="69" fill="white"/>
</clipPath>
</defs>
</svg>
