<svg width="146" height="54" viewBox="0 0 146 54" fill="none" xmlns="http://www.w3.org/2000/svg">
<g clip-path="url(#clip0_1_230)">
<g clip-path="url(#clip1_1_230)">
<g clip-path="url(#clip2_1_230)">
<mask id="mask0_1_230" style="mask-type:luminance" maskUnits="userSpaceOnUse" x="0" y="0" width="146" height="54">
<path d="M119 0H27C12.0883 0 0 12.0883 0 27C0 41.9117 12.0883 54 27 54H119C133.912 54 146 41.9117 146 27C146 12.0883 133.912 0 119 0Z" fill="white"/>
</mask>
<g mask="url(#mask0_1_230)">
<path d="M119 0H27C12.0883 0 0 12.0883 0 27C0 41.9117 12.0883 54 27 54H119C133.912 54 146 41.9117 146 27C146 12.0883 133.912 0 119 0Z" fill="white" fill-opacity="0.03"/>
<g opacity="0.03">
<path d="M18.1783 40.405C18.1783 37.9789 16.2115 36.0121 13.7854 36.0121C11.3593 36.0121 9.39255 37.9789 9.39255 40.405C9.39255 42.8311 11.3593 44.7979 13.7854 44.7979C16.2115 44.7979 18.1783 42.8311 18.1783 40.405Z" stroke="white" stroke-width="0.5"/>
<path d="M27.4635 40.4045C27.4635 37.9784 25.4967 36.0116 23.0706 36.0116C20.6445 36.0116 18.6777 37.9784 18.6777 40.4045C18.6777 42.8306 20.6445 44.7974 23.0706 44.7974C25.4967 44.7974 27.4635 42.8306 27.4635 40.4045Z" stroke="white" stroke-width="0.5"/>
<path d="M18.1783 21.8928C18.1783 19.4667 16.2115 17.4999 13.7854 17.4999C11.3593 17.4999 9.39255 19.4667 9.39255 21.8928C9.39255 24.3189 11.3593 26.2856 13.7854 26.2856C16.2115 26.2856 18.1783 24.3189 18.1783 21.8928Z" stroke="white" stroke-width="0.5"/>
<path d="M27.4635 21.8933C27.4635 19.4672 25.4967 17.5004 23.0706 17.5004C20.6445 17.5004 18.6777 19.4672 18.6777 21.8933C18.6777 24.3194 20.6445 26.2862 23.0706 26.2862C25.4967 26.2862 27.4635 24.3194 27.4635 21.8933Z" stroke="white" stroke-width="0.5"/>
<path d="M18.1783 3.38107C18.1783 0.954956 16.2115 -1.0118 13.7854 -1.0118C11.3593 -1.0118 9.39255 0.954956 9.39255 3.38107C9.39255 5.80717 11.3593 7.77393 13.7854 7.77393C16.2115 7.77393 18.1783 5.80717 18.1783 3.38107Z" stroke="white" stroke-width="0.5"/>
<path d="M27.4635 3.38155C27.4635 0.955444 25.4967 -1.01131 23.0706 -1.01131C20.6445 -1.01131 18.6777 0.955444 18.6777 3.38155C18.6777 5.80766 20.6445 7.77441 23.0706 7.77441C25.4967 7.77441 27.4635 5.80766 27.4635 3.38155Z" stroke="white" stroke-width="0.5"/>
<path d="M36.7506 3.38155C36.7506 0.955444 34.7838 -1.01131 32.3577 -1.01131C29.9316 -1.01131 27.9648 0.955444 27.9648 3.38155C27.9648 5.80766 29.9316 7.77441 32.3577 7.77441C34.7838 7.77441 36.7506 5.80766 36.7506 3.38155Z" stroke="white" stroke-width="0.5"/>
<path d="M8.89314 3.38107C8.89314 0.954956 6.92639 -1.01179 4.50028 -1.01179C2.07417 -1.01179 0.107422 0.954956 0.107422 3.38107C0.107422 5.80718 2.07417 7.77393 4.50028 7.77393C6.92639 7.77393 8.89314 5.80718 8.89314 3.38107Z" stroke="white" stroke-width="0.5"/>
<path d="M18.1783 3.38107C18.1783 0.954956 16.2115 -1.0118 13.7854 -1.0118C11.3593 -1.0118 9.39255 0.954956 9.39255 3.38107C9.39255 5.80717 11.3593 7.77393 13.7854 7.77393C16.2115 7.77393 18.1783 5.80717 18.1783 3.38107Z" stroke="white" stroke-width="0.5"/>
<path d="M18.1783 49.6906C18.1783 47.2645 16.2115 45.2977 13.7854 45.2977C11.3593 45.2977 9.39255 47.2645 9.39255 49.6906C9.39255 52.1167 11.3593 54.0835 13.7854 54.0835C16.2115 54.0835 18.1783 52.1167 18.1783 49.6906Z" stroke="white" stroke-width="0.5"/>
<path d="M27.4635 49.6906C27.4635 47.2645 25.4967 45.2977 23.0706 45.2977C20.6445 45.2977 18.6777 47.2645 18.6777 49.6906C18.6777 52.1167 20.6445 54.0835 23.0706 54.0835C25.4967 54.0835 27.4635 52.1167 27.4635 49.6906Z" fill="#D9D9D9" stroke="white" stroke-width="0.5"/>
<path d="M18.1783 31.1789C18.1783 28.7528 16.2115 26.786 13.7854 26.786C11.3593 26.786 9.39255 28.7528 9.39255 31.1789C9.39255 33.605 11.3593 35.5717 13.7854 35.5717C16.2115 35.5717 18.1783 33.605 18.1783 31.1789Z" stroke="white" stroke-width="0.5"/>
<path d="M27.4635 31.1784C27.4635 28.7523 25.4967 26.7855 23.0706 26.7855C20.6445 26.7855 18.6777 28.7523 18.6777 31.1784C18.6777 33.6045 20.6445 35.5713 23.0706 35.5713C25.4967 35.5713 27.4635 33.6045 27.4635 31.1784Z" stroke="white" stroke-width="0.5"/>
<path d="M18.1783 12.6667C18.1783 10.2406 16.2115 8.27385 13.7854 8.27385C11.3593 8.27385 9.39255 10.2406 9.39255 12.6667C9.39255 15.0928 11.3593 17.0596 13.7854 17.0596C16.2115 17.0596 18.1783 15.0928 18.1783 12.6667Z" stroke="white" stroke-width="0.5"/>
<path d="M27.4635 12.6672C27.4635 10.2411 25.4967 8.27434 23.0706 8.27434C20.6445 8.27434 18.6777 10.2411 18.6777 12.6672C18.6777 15.0933 20.6445 17.0601 23.0706 17.0601C25.4967 17.0601 27.4635 15.0933 27.4635 12.6672Z" stroke="white" stroke-width="0.5"/>
<path d="M36.7506 12.6672C36.7506 10.2411 34.7838 8.27434 32.3577 8.27434C29.9316 8.27434 27.9648 10.2411 27.9648 12.6672C27.9648 15.0933 29.9316 17.0601 32.3577 17.0601C34.7838 17.0601 36.7506 15.0933 36.7506 12.6672Z" fill="#D9D9D9" stroke="white" stroke-width="0.5"/>
<path d="M8.89314 12.6667C8.89314 10.2406 6.92639 8.27385 4.50028 8.27385C2.07417 8.27385 0.107422 10.2406 0.107422 12.6667C0.107422 15.0928 2.07417 17.0596 4.50028 17.0596C6.92639 17.0596 8.89314 15.0928 8.89314 12.6667Z" stroke="white" stroke-width="0.5"/>
<path d="M18.1783 12.6667C18.1783 10.2406 16.2115 8.27385 13.7854 8.27385C11.3593 8.27385 9.39255 10.2406 9.39255 12.6667C9.39255 15.0928 11.3593 17.0596 13.7854 17.0596C16.2115 17.0596 18.1783 15.0928 18.1783 12.6667Z" stroke="white" stroke-width="0.5"/>
<path d="M1.0479 -0.339381C1.0479 -1.0133 0.501582 -1.55962 -0.172338 -1.55962C-0.846258 -1.55962 -1.39258 -1.0133 -1.39258 -0.339381C-1.39258 0.334539 -0.846258 0.880859 -0.172338 0.880859C0.501582 0.880859 1.0479 0.334539 1.0479 -0.339381Z" fill="white"/>
<path d="M13.3086 12.7261H25.0943" stroke="white" stroke-width="0.5"/>
<path d="M13.6973 3.38086H25.483" stroke="white" stroke-width="0.5"/>
<path d="M13.6973 21.8931H25.483" stroke="white" stroke-width="0.5"/>
<path d="M13.6973 31.1787H25.483" stroke="white" stroke-width="0.5"/>
<path d="M13.7266 40.4048H25.5123" stroke="white" stroke-width="0.5"/>
<path d="M13.7559 49.6904H25.5416" stroke="white" stroke-width="0.5"/>
<path d="M4.58984 -4V13.2619" stroke="white" stroke-width="0.5"/>
<path d="M13.7559 62.25V-3.97025" stroke="white" stroke-width="0.5"/>
<path d="M22.9824 62.25V-3.97025" stroke="white" stroke-width="0.5"/>
<path d="M18.3984 62.25V-3.97025" stroke="white" stroke-width="0.5"/>
<path d="M14.9775 12.6963C14.9775 12.0224 14.4312 11.4761 13.7573 11.4761C13.0834 11.4761 12.537 12.0224 12.537 12.6963C12.537 13.3702 13.0834 13.9165 13.7573 13.9165C14.4312 13.9165 14.9775 13.3702 14.9775 12.6963Z" fill="white"/>
<path d="M19.5889 49.7202C19.5889 49.0463 19.0426 48.5 18.3687 48.5C17.6948 48.5 17.1485 49.0463 17.1485 49.7202C17.1485 50.3941 17.6948 50.9404 18.3687 50.9404C19.0426 50.9404 19.5889 50.3941 19.5889 49.7202Z" fill="white"/>
</g>
<g opacity="0.03">
<path d="M61.3229 40.405C61.3229 37.9789 59.3561 36.0121 56.93 36.0121C54.5039 36.0121 52.5371 37.9789 52.5371 40.405C52.5371 42.8311 54.5039 44.7979 56.93 44.7979C59.3561 44.7979 61.3229 42.8311 61.3229 40.405Z" stroke="white" stroke-width="0.5"/>
<path d="M70.608 40.405C70.608 37.9789 68.6412 36.0121 66.2151 36.0121C63.789 36.0121 61.8222 37.9789 61.8222 40.405C61.8222 42.8311 63.789 44.7979 66.2151 44.7979C68.6412 44.7979 70.608 42.8311 70.608 40.405Z" stroke="white" stroke-width="0.5"/>
<path d="M89.1782 40.405C89.1782 37.9789 87.2115 36.0121 84.7854 36.0121C82.3593 36.0121 80.3925 37.9789 80.3925 40.405C80.3925 42.8311 82.3593 44.7979 84.7854 44.7979C87.2115 44.7979 89.1782 42.8311 89.1782 40.405Z" stroke="white" stroke-width="0.5"/>
<path d="M98.4635 40.4045C98.4635 37.9784 96.4967 36.0116 94.0706 36.0116C91.6445 36.0116 89.6777 37.9784 89.6777 40.4045C89.6777 42.8306 91.6445 44.7974 94.0706 44.7974C96.4967 44.7974 98.4635 42.8306 98.4635 40.4045Z" stroke="white" stroke-width="0.5"/>
<path d="M61.3229 21.8928C61.3229 19.4667 59.3561 17.4999 56.93 17.4999C54.5039 17.4999 52.5371 19.4667 52.5371 21.8928C52.5371 24.3189 54.5039 26.2856 56.93 26.2856C59.3561 26.2856 61.3229 24.3189 61.3229 21.8928Z" stroke="white" stroke-width="0.5"/>
<path d="M70.608 21.8928C70.608 19.4667 68.6412 17.5 66.2151 17.5C63.789 17.5 61.8222 19.4667 61.8222 21.8928C61.8222 24.3189 63.789 26.2857 66.2151 26.2857C68.6412 26.2857 70.608 24.3189 70.608 21.8928Z" stroke="white" stroke-width="0.5"/>
<path d="M89.1782 21.8928C89.1782 19.4667 87.2115 17.4999 84.7854 17.4999C82.3593 17.4999 80.3925 19.4667 80.3925 21.8928C80.3925 24.3189 82.3593 26.2856 84.7854 26.2856C87.2115 26.2856 89.1782 24.3189 89.1782 21.8928Z" stroke="white" stroke-width="0.5"/>
<path d="M98.4635 21.8933C98.4635 19.4672 96.4967 17.5004 94.0706 17.5004C91.6445 17.5004 89.6777 19.4672 89.6777 21.8933C89.6777 24.3194 91.6445 26.2862 94.0706 26.2862C96.4967 26.2862 98.4635 24.3194 98.4635 21.8933Z" stroke="white" stroke-width="0.5"/>
<path d="M61.3229 3.38107C61.3229 0.954956 59.3561 -1.0118 56.93 -1.0118C54.5039 -1.0118 52.5371 0.954956 52.5371 3.38107C52.5371 5.80717 54.5039 7.77393 56.93 7.77393C59.3561 7.77393 61.3229 5.80717 61.3229 3.38107Z" stroke="white" stroke-width="0.5"/>
<path d="M52.0358 3.38107C52.0358 0.954956 50.069 -1.0118 47.6429 -1.0118C45.2168 -1.0118 43.25 0.954956 43.25 3.38107C43.25 5.80717 45.2168 7.77393 47.6429 7.77393C50.069 7.77393 52.0358 5.80717 52.0358 3.38107Z" stroke="white" stroke-width="0.5"/>
<path d="M70.608 3.38106C70.608 0.954952 68.6412 -1.0118 66.2151 -1.0118C63.789 -1.0118 61.8222 0.954952 61.8222 3.38106C61.8222 5.80717 63.789 7.77393 66.2151 7.77393C68.6412 7.77393 70.608 5.80717 70.608 3.38106Z" stroke="white" stroke-width="0.5"/>
<path d="M89.1782 3.38107C89.1782 0.954956 87.2115 -1.0118 84.7854 -1.0118C82.3593 -1.0118 80.3925 0.954956 80.3925 3.38107C80.3925 5.80717 82.3593 7.77393 84.7854 7.77393C87.2115 7.77393 89.1782 5.80717 89.1782 3.38107Z" stroke="white" stroke-width="0.5"/>
<path d="M98.4635 3.38155C98.4635 0.955444 96.4967 -1.01131 94.0706 -1.01131C91.6445 -1.01131 89.6777 0.955444 89.6777 3.38155C89.6777 5.80766 91.6445 7.77441 94.0706 7.77441C96.4967 7.77441 98.4635 5.80766 98.4635 3.38155Z" stroke="white" stroke-width="0.5"/>
<path d="M107.751 3.38155C107.751 0.955444 105.784 -1.01131 103.358 -1.01131C100.932 -1.01131 98.9651 0.955444 98.9651 3.38155C98.9651 5.80766 100.932 7.77441 103.358 7.77441C105.784 7.77441 107.751 5.80766 107.751 3.38155Z" stroke="white" stroke-width="0.5"/>
<path d="M79.8931 3.38107C79.8931 0.954956 77.9264 -1.0118 75.5003 -1.0118C73.0742 -1.0118 71.1074 0.954956 71.1074 3.38107C71.1074 5.80717 73.0742 7.77393 75.5003 7.77393C77.9264 7.77393 79.8931 5.80717 79.8931 3.38107Z" stroke="white" stroke-width="0.5"/>
<path d="M89.1782 3.38107C89.1782 0.954956 87.2115 -1.0118 84.7854 -1.0118C82.3593 -1.0118 80.3925 0.954956 80.3925 3.38107C80.3925 5.80717 82.3593 7.77393 84.7854 7.77393C87.2115 7.77393 89.1782 5.80717 89.1782 3.38107Z" stroke="white" stroke-width="0.5"/>
<path d="M61.3229 49.6906C61.3229 47.2645 59.3561 45.2977 56.93 45.2977C54.5039 45.2977 52.5371 47.2645 52.5371 49.6906C52.5371 52.1167 54.5039 54.0835 56.93 54.0835C59.3561 54.0835 61.3229 52.1167 61.3229 49.6906Z" stroke="white" stroke-width="0.5"/>
<path d="M70.608 49.6906C70.608 47.2645 68.6412 45.2977 66.2151 45.2977C63.789 45.2977 61.8222 47.2645 61.8222 49.6906C61.8222 52.1167 63.789 54.0835 66.2151 54.0835C68.6412 54.0835 70.608 52.1167 70.608 49.6906Z" stroke="white" stroke-width="0.5"/>
<path d="M89.1782 49.6906C89.1782 47.2645 87.2115 45.2977 84.7854 45.2977C82.3593 45.2977 80.3925 47.2645 80.3925 49.6906C80.3925 52.1167 82.3593 54.0835 84.7854 54.0835C87.2115 54.0835 89.1782 52.1167 89.1782 49.6906Z" fill="#D9D9D9" stroke="white" stroke-width="0.5"/>
<path d="M98.4635 49.6906C98.4635 47.2645 96.4967 45.2977 94.0706 45.2977C91.6445 45.2977 89.6777 47.2645 89.6777 49.6906C89.6777 52.1167 91.6445 54.0835 94.0706 54.0835C96.4967 54.0835 98.4635 52.1167 98.4635 49.6906Z" stroke="white" stroke-width="0.5"/>
<path d="M61.3229 31.1784C61.3229 28.7523 59.3561 26.7855 56.93 26.7855C54.5039 26.7855 52.5371 28.7523 52.5371 31.1784C52.5371 33.6045 54.5039 35.5713 56.93 35.5713C59.3561 35.5713 61.3229 33.6045 61.3229 31.1784Z" stroke="white" stroke-width="0.5"/>
<path d="M70.608 31.1784C70.608 28.7523 68.6412 26.7855 66.2151 26.7855C63.789 26.7855 61.8222 28.7523 61.8222 31.1784C61.8222 33.6045 63.789 35.5713 66.2151 35.5713C68.6412 35.5713 70.608 33.6045 70.608 31.1784Z" stroke="white" stroke-width="0.5"/>
<path d="M89.1782 31.1789C89.1782 28.7528 87.2115 26.786 84.7854 26.786C82.3593 26.786 80.3925 28.7528 80.3925 31.1789C80.3925 33.605 82.3593 35.5717 84.7854 35.5717C87.2115 35.5717 89.1782 33.605 89.1782 31.1789Z" stroke="white" stroke-width="0.5"/>
<path d="M98.4635 31.1784C98.4635 28.7523 96.4967 26.7855 94.0706 26.7855C91.6445 26.7855 89.6777 28.7523 89.6777 31.1784C89.6777 33.6045 91.6445 35.5713 94.0706 35.5713C96.4967 35.5713 98.4635 33.6045 98.4635 31.1784Z" stroke="white" stroke-width="0.5"/>
<path d="M61.3229 12.6667C61.3229 10.2406 59.3561 8.27385 56.93 8.27385C54.5039 8.27385 52.5371 10.2406 52.5371 12.6667C52.5371 15.0928 54.5039 17.0596 56.93 17.0596C59.3561 17.0596 61.3229 15.0928 61.3229 12.6667Z" stroke="white" stroke-width="0.5"/>
<path d="M52.0358 12.6667C52.0358 10.2406 50.069 8.27385 47.6429 8.27385C45.2168 8.27385 43.25 10.2406 43.25 12.6667C43.25 15.0928 45.2168 17.0596 47.6429 17.0596C50.069 17.0596 52.0358 15.0928 52.0358 12.6667Z" stroke="white" stroke-width="0.5"/>
<path d="M70.608 12.6667C70.608 10.2406 68.6412 8.27385 66.2151 8.27385C63.789 8.27385 61.8222 10.2406 61.8222 12.6667C61.8222 15.0928 63.789 17.0596 66.2151 17.0596C68.6412 17.0596 70.608 15.0928 70.608 12.6667Z" stroke="white" stroke-width="0.5"/>
<path d="M89.1782 12.6667C89.1782 10.2406 87.2115 8.27385 84.7854 8.27385C82.3593 8.27385 80.3925 10.2406 80.3925 12.6667C80.3925 15.0928 82.3593 17.0596 84.7854 17.0596C87.2115 17.0596 89.1782 15.0928 89.1782 12.6667Z" stroke="white" stroke-width="0.5"/>
<path d="M98.4635 12.6672C98.4635 10.2411 96.4967 8.27434 94.0706 8.27434C91.6445 8.27434 89.6777 10.2411 89.6777 12.6672C89.6777 15.0933 91.6445 17.0601 94.0706 17.0601C96.4967 17.0601 98.4635 15.0933 98.4635 12.6672Z" stroke="white" stroke-width="0.5"/>
<path d="M107.751 12.6672C107.751 10.2411 105.784 8.27434 103.358 8.27434C100.932 8.27434 98.9651 10.2411 98.9651 12.6672C98.9651 15.0933 100.932 17.0601 103.358 17.0601C105.784 17.0601 107.751 15.0933 107.751 12.6672Z" stroke="white" stroke-width="0.5"/>
<path d="M79.8931 12.6667C79.8931 10.2406 77.9264 8.27385 75.5003 8.27385C73.0742 8.27385 71.1074 10.2406 71.1074 12.6667C71.1074 15.0928 73.0742 17.0596 75.5003 17.0596C77.9264 17.0596 79.8931 15.0928 79.8931 12.6667Z" fill="#D9D9D9" stroke="white" stroke-width="0.5"/>
<path d="M89.1782 12.6667C89.1782 10.2406 87.2115 8.27385 84.7854 8.27385C82.3593 8.27385 80.3925 10.2406 80.3925 12.6667C80.3925 15.0928 82.3593 17.0596 84.7854 17.0596C87.2115 17.0596 89.1782 15.0928 89.1782 12.6667Z" stroke="white" stroke-width="0.5"/>
<path d="M54.4285 35.792C54.4285 35.1181 53.8822 34.5718 53.2083 34.5718C52.5344 34.5718 51.988 35.1181 51.988 35.792C51.988 36.4659 52.5344 37.0122 53.2083 37.0122C53.8822 37.0122 54.4285 36.4659 54.4285 35.792Z" fill="white"/>
<path d="M72.0479 -0.339378C72.0479 -1.0133 71.5016 -1.55962 70.8277 -1.55962C70.1538 -1.55962 69.6075 -1.0133 69.6075 -0.339378C69.6075 0.334542 70.1538 0.880859 70.8277 0.880859C71.5016 0.880859 72.0479 0.334542 72.0479 -0.339378Z" fill="white"/>
<path d="M48.6543 50.167H66.5114" stroke="white" stroke-width="0.5"/>
<path d="M48.6543 40.9404H66.5114" stroke="white" stroke-width="0.5"/>
<path d="M48.6543 31.7139H66.5114" stroke="white" stroke-width="0.5"/>
<path d="M48.6543 22.4878H66.5114" stroke="white" stroke-width="0.5"/>
<path d="M48.6543 13.2617H66.5114" stroke="white" stroke-width="0.5"/>
<path d="M84.3086 12.7261H96.0943" stroke="white" stroke-width="0.5"/>
<path d="M84.6973 3.38086H96.483" stroke="white" stroke-width="0.5"/>
<path d="M84.6973 21.8931H96.483" stroke="white" stroke-width="0.5"/>
<path d="M84.6973 31.1787H96.483" stroke="white" stroke-width="0.5"/>
<path d="M84.7266 40.4048H96.5123" stroke="white" stroke-width="0.5"/>
<path d="M84.7559 49.6904H96.5416" stroke="white" stroke-width="0.5"/>
<path d="M48.6543 4.03564H66.5114" stroke="white" stroke-width="0.5"/>
<path d="M75.5898 -4V13.2619" stroke="white" stroke-width="0.5"/>
<path d="M57.168 62.25V-3.97025" stroke="white" stroke-width="0.5"/>
<path d="M66.4219 62.25V-3.97025" stroke="white" stroke-width="0.5"/>
<path d="M84.7559 62.25V-3.97025" stroke="white" stroke-width="0.5"/>
<path d="M93.9824 62.25V-3.97025" stroke="white" stroke-width="0.5"/>
<path d="M89.3984 62.25V-3.97025" stroke="white" stroke-width="0.5"/>
<path d="M67.6123 50.1963C67.6123 49.5224 67.066 48.9761 66.3921 48.9761C65.7182 48.9761 65.1718 49.5224 65.1718 50.1963C65.1718 50.8702 65.7182 51.4165 66.3921 51.4165C67.066 51.4165 67.6123 50.8702 67.6123 50.1963Z" fill="white"/>
<path d="M85.9775 12.6963C85.9775 12.0224 85.4312 11.4761 84.7573 11.4761C84.0834 11.4761 83.537 12.0224 83.537 12.6963C83.537 13.3702 84.0834 13.9165 84.7573 13.9165C85.4312 13.9165 85.9775 13.3702 85.9775 12.6963Z" fill="white"/>
<path d="M90.5889 49.7202C90.5889 49.0463 90.0426 48.4999 89.3687 48.4999C88.6948 48.4999 88.1484 49.0463 88.1484 49.7202C88.1484 50.3941 88.6948 50.9404 89.3687 50.9404C90.0426 50.9404 90.5889 50.3941 90.5889 49.7202Z" fill="white"/>
</g>
<g opacity="0.03">
<path d="M132.323 40.405C132.323 37.9789 130.356 36.0121 127.93 36.0121C125.504 36.0121 123.537 37.9789 123.537 40.405C123.537 42.8311 125.504 44.7979 127.93 44.7979C130.356 44.7979 132.323 42.8311 132.323 40.405Z" stroke="white" stroke-width="0.5"/>
<path d="M141.608 40.405C141.608 37.9789 139.641 36.0121 137.215 36.0121C134.789 36.0121 132.822 37.9789 132.822 40.405C132.822 42.8311 134.789 44.7979 137.215 44.7979C139.641 44.7979 141.608 42.8311 141.608 40.405Z" stroke="white" stroke-width="0.5"/>
<path d="M132.323 21.8928C132.323 19.4667 130.356 17.4999 127.93 17.4999C125.504 17.4999 123.537 19.4667 123.537 21.8928C123.537 24.3189 125.504 26.2856 127.93 26.2856C130.356 26.2856 132.323 24.3189 132.323 21.8928Z" stroke="white" stroke-width="0.5"/>
<path d="M141.608 21.8928C141.608 19.4667 139.641 17.4999 137.215 17.4999C134.789 17.4999 132.822 19.4667 132.822 21.8928C132.822 24.3189 134.789 26.2856 137.215 26.2856C139.641 26.2856 141.608 24.3189 141.608 21.8928Z" stroke="white" stroke-width="0.5"/>
<path d="M132.323 3.38107C132.323 0.954956 130.356 -1.0118 127.93 -1.0118C125.504 -1.0118 123.537 0.954956 123.537 3.38107C123.537 5.80717 125.504 7.77393 127.93 7.77393C130.356 7.77393 132.323 5.80717 132.323 3.38107Z" stroke="white" stroke-width="0.5"/>
<path d="M123.036 3.38107C123.036 0.954956 121.069 -1.0118 118.643 -1.0118C116.217 -1.0118 114.25 0.954956 114.25 3.38107C114.25 5.80717 116.217 7.77393 118.643 7.77393C121.069 7.77393 123.036 5.80717 123.036 3.38107Z" stroke="white" stroke-width="0.5"/>
<path d="M141.608 3.38107C141.608 0.954964 139.641 -1.0118 137.215 -1.0118C134.789 -1.0118 132.822 0.954964 132.822 3.38107C132.822 5.80718 134.789 7.77393 137.215 7.77393C139.641 7.77393 141.608 5.80718 141.608 3.38107Z" stroke="white" stroke-width="0.5"/>
<path d="M150.893 3.38107C150.893 0.954964 148.926 -1.01178 146.5 -1.01178C144.074 -1.01178 142.107 0.954964 142.107 3.38107C142.107 5.80718 144.074 7.77393 146.5 7.77393C148.926 7.77393 150.893 5.80718 150.893 3.38107Z" stroke="white" stroke-width="0.5"/>
<path d="M132.323 49.6906C132.323 47.2645 130.356 45.2977 127.93 45.2977C125.504 45.2977 123.537 47.2645 123.537 49.6906C123.537 52.1167 125.504 54.0835 127.93 54.0835C130.356 54.0835 132.323 52.1167 132.323 49.6906Z" stroke="white" stroke-width="0.5"/>
<path d="M141.608 49.6906C141.608 47.2645 139.641 45.2977 137.215 45.2977C134.789 45.2977 132.822 47.2645 132.822 49.6906C132.822 52.1167 134.789 54.0835 137.215 54.0835C139.641 54.0835 141.608 52.1167 141.608 49.6906Z" stroke="white" stroke-width="0.5"/>
<path d="M132.323 31.1784C132.323 28.7523 130.356 26.7855 127.93 26.7855C125.504 26.7855 123.537 28.7523 123.537 31.1784C123.537 33.6045 125.504 35.5713 127.93 35.5713C130.356 35.5713 132.323 33.6045 132.323 31.1784Z" stroke="white" stroke-width="0.5"/>
<path d="M141.608 31.1784C141.608 28.7523 139.641 26.7855 137.215 26.7855C134.789 26.7855 132.822 28.7523 132.822 31.1784C132.822 33.6045 134.789 35.5713 137.215 35.5713C139.641 35.5713 141.608 33.6045 141.608 31.1784Z" stroke="white" stroke-width="0.5"/>
<path d="M132.323 12.6667C132.323 10.2406 130.356 8.27385 127.93 8.27385C125.504 8.27385 123.537 10.2406 123.537 12.6667C123.537 15.0928 125.504 17.0596 127.93 17.0596C130.356 17.0596 132.323 15.0928 132.323 12.6667Z" stroke="white" stroke-width="0.5"/>
<path d="M123.036 12.6667C123.036 10.2406 121.069 8.27385 118.643 8.27385C116.217 8.27385 114.25 10.2406 114.25 12.6667C114.25 15.0928 116.217 17.0596 118.643 17.0596C121.069 17.0596 123.036 15.0928 123.036 12.6667Z" fill="#D9D9D9" stroke="white" stroke-width="0.5"/>
<path d="M141.608 12.6667C141.608 10.2406 139.641 8.27382 137.215 8.27382C134.789 8.27382 132.822 10.2406 132.822 12.6667C132.822 15.0928 134.789 17.0595 137.215 17.0595C139.641 17.0595 141.608 15.0928 141.608 12.6667Z" stroke="white" stroke-width="0.5"/>
<path d="M150.893 12.6667C150.893 10.2406 148.926 8.27383 146.5 8.27383C144.074 8.27383 142.107 10.2406 142.107 12.6667C142.107 15.0928 144.074 17.0595 146.5 17.0595C148.926 17.0595 150.893 15.0928 150.893 12.6667Z" stroke="white" stroke-width="0.5"/>
<path d="M125.428 35.792C125.428 35.1181 124.882 34.5718 124.208 34.5718C123.534 34.5718 122.988 35.1181 122.988 35.792C122.988 36.4659 123.534 37.0122 124.208 37.0122C124.882 37.0122 125.428 36.4659 125.428 35.792Z" fill="white"/>
<path d="M143.048 -0.339386C143.048 -1.01331 142.502 -1.55962 141.828 -1.55962C141.154 -1.55962 140.608 -1.01331 140.608 -0.339386C140.608 0.334534 141.154 0.880859 141.828 0.880859C142.502 0.880859 143.048 0.334534 143.048 -0.339386Z" fill="white"/>
<path d="M119.654 50.167H137.511" stroke="white" stroke-width="0.5"/>
<path d="M119.654 40.9404H137.511" stroke="white" stroke-width="0.5"/>
<path d="M119.654 31.7139H137.511" stroke="white" stroke-width="0.5"/>
<path d="M119.654 22.4878H137.511" stroke="white" stroke-width="0.5"/>
<path d="M119.654 13.2617H137.511" stroke="white" stroke-width="0.5"/>
<path d="M119.654 4.03564H137.511" stroke="white" stroke-width="0.5"/>
<path d="M128.168 62.25V-3.97025" stroke="white" stroke-width="0.5"/>
<path d="M137.422 62.25V-3.97025" stroke="white" stroke-width="0.5"/>
<path d="M138.612 50.1963C138.612 49.5224 138.066 48.976 137.392 48.976C136.718 48.976 136.172 49.5224 136.172 50.1963C136.172 50.8702 136.718 51.4165 137.392 51.4165C138.066 51.4165 138.612 50.8702 138.612 50.1963Z" fill="white"/>
</g>
<path d="M111.531 26.5719C103.583 24.4423 99.6198 34.1347 97.4902 42.0825" stroke="white" stroke-width="2"/>
<path d="M96.8797 7.99948C96.8797 16.2277 103.508 26.3677 111.736 26.3677" stroke="white" stroke-width="2"/>
<path d="M111.777 26.5718H107.287" stroke="white"/>
<path d="M112 26H30" stroke="white" stroke-width="2"/>
</g>
</g>
</g>
</g>
<defs>
<clipPath id="clip0_1_230">
<rect width="146" height="54" fill="white"/>
</clipPath>
<clipPath id="clip1_1_230">
<rect width="146" height="54" fill="white"/>
</clipPath>
<clipPath id="clip2_1_230">
<rect width="146" height="54" fill="white"/>
</clipPath>
</defs>
</svg>
