<svg width="168" height="69" viewBox="0 0 168 69" fill="none" xmlns="http://www.w3.org/2000/svg">
<g clip-path="url(#clip0_1_470)">
<g clip-path="url(#clip1_1_470)">
<path fill-rule="evenodd" clip-rule="evenodd" d="M49.4956 35.8419C50.8907 35.7855 51.9619 37.0164 51.6389 38.3747C51.5521 38.7398 51.4521 39.0999 51.3396 39.4543C51.0254 40.4434 50.0461 41.0214 49.0084 41.0364C40.4263 41.1611 35.7136 44.8867 33.2207 48.8272C32.9575 49.2432 32.4546 49.4573 31.9876 49.3018C31.4249 49.1145 31.1661 48.482 31.4144 47.9434C35.6258 38.8098 43.4797 36.0852 49.4956 35.8419ZM52.0521 34.8346C52.0521 34.8406 52.0471 34.8455 52.0412 34.8456C39.4284 35.1364 33.634 41.9312 31.1744 47.8656C30.9554 48.3941 30.3474 48.659 29.8389 48.3972C29.4642 48.2043 29.2732 47.7786 29.3602 47.3663C32.0344 34.6966 42.3946 30.012 49.0653 29.031C50.1225 28.8755 51.1323 29.4983 51.4339 30.5234C51.8362 31.8905 52.0521 33.3373 52.0521 34.8346ZM26.9318 45.8798C26.9324 46.2428 27.0947 46.5911 27.3799 46.8157C28.0925 47.3772 29.0987 46.914 29.3029 46.0301C30.817 39.4779 35.3762 32.0425 46.8998 28.3424C48.5052 27.8269 49.3245 25.9695 48.2041 24.7094C47.497 23.914 46.7078 23.1932 45.85 22.5601C45.2305 22.103 44.4197 22.017 43.7082 22.3112C37.0828 25.0502 26.9096 32.6788 26.9318 45.8798ZM27.1126 40.0974C26.6217 42.3014 23.947 43.3305 22.9904 41.2851C22.0743 39.3261 21.5625 37.1401 21.5625 34.8346C21.5625 26.4152 28.3878 19.5898 36.8073 19.5898C37.3926 19.5898 37.9703 19.6228 38.5384 19.6871C40.5967 19.9197 40.7727 22.4697 39.0764 23.6584C31.6398 28.8696 28.3014 34.7598 27.1126 40.0974ZM36.4556 50.0754C34.7472 50.0368 33.9583 48.1218 35.1284 46.8764C38.5769 43.2064 43.0777 41.961 46.7334 41.8196C48.4677 41.7526 49.386 43.6219 48.237 44.9227C45.4437 48.0851 41.3584 50.0794 36.8073 50.0794C36.6897 50.0794 36.5725 50.0781 36.4556 50.0754Z" fill="white" fill-opacity="0.18"/>
<path d="M65.2045 44.9482V23.5546H73.721C77.9353 23.5546 80.5108 25.7496 80.5108 29.3201C80.5108 31.6907 79.4572 33.3881 77.4378 34.2368C79.6913 34.9685 80.8327 36.6659 80.8327 39.1535C80.8327 42.8118 78.2865 44.9482 73.8673 44.9482H65.2045ZM73.3991 26.8617H68.9506V32.6857H73.4869C75.5355 32.6857 76.6769 31.6029 76.6769 29.7006C76.6769 27.8568 75.5063 26.8617 73.3991 26.8617ZM73.721 35.8465H68.9506V41.6412H73.721C75.8282 41.6412 76.9988 40.6168 76.9988 38.6853C76.9988 36.8708 75.7989 35.8465 73.721 35.8465ZM86.1699 44.9482H82.6287V23.1742H86.1699V44.9482ZM87.8959 37.6902C87.8959 33.1832 91.1445 30.081 95.6222 30.081C100.1 30.081 103.348 33.1832 103.348 37.6902C103.348 42.1972 100.1 45.2994 95.6222 45.2994C91.1445 45.2994 87.8959 42.1972 87.8959 37.6902ZM91.4664 37.6902C91.4664 40.3242 93.1638 42.1094 95.6222 42.1094C98.0806 42.1094 99.778 40.3242 99.778 37.6902C99.778 35.0563 98.0806 33.271 95.6222 33.271C93.1638 33.271 91.4664 35.0563 91.4664 37.6902ZM104.159 37.6902C104.159 33.2125 107.115 30.0517 111.388 30.0517C115.339 30.0517 118.031 32.2467 118.412 35.7294H114.841C114.432 34.0905 113.232 33.2418 111.534 33.2418C109.252 33.2418 107.73 34.9685 107.73 37.6902C107.73 40.412 109.134 42.1094 111.417 42.1094C113.202 42.1094 114.461 41.2314 114.841 39.6511H118.441C118.002 43.0167 115.193 45.3287 111.417 45.3287C107.027 45.3287 104.159 42.285 104.159 37.6902ZM123.528 44.9482H119.987V23.1742H123.528V36.5488L129.147 30.4907H133.625L128.123 36.2269L133.508 44.9482H129.41L125.635 38.8609L123.528 41.0558V44.9482ZM133.364 40.5583H136.759C136.789 41.8168 137.725 42.6069 139.364 42.6069C141.032 42.6069 141.939 41.9338 141.939 40.8802C141.939 40.1486 141.559 39.6218 140.271 39.3291L137.667 38.7145C135.062 38.1292 133.803 36.9 133.803 34.588C133.803 31.7492 136.203 30.0517 139.54 30.0517C142.788 30.0517 144.983 31.9248 145.012 34.7343H141.617C141.588 33.5052 140.769 32.715 139.393 32.715C137.988 32.715 137.169 33.3588 137.169 34.4417C137.169 35.2611 137.813 35.7879 139.042 36.0806L141.647 36.6952C144.076 37.2512 145.305 38.3633 145.305 40.5876C145.305 43.5142 142.817 45.3287 139.247 45.3287C135.647 45.3287 133.364 43.3971 133.364 40.5583Z" fill="white" fill-opacity="0.18"/>
</g>
</g>
<defs>
<clipPath id="clip0_1_470">
<rect width="168" height="69" fill="white"/>
</clipPath>
<clipPath id="clip1_1_470">
<rect width="168" height="69" fill="white"/>
</clipPath>
</defs>
</svg>
